<mxfile host="65bd71144e">
    <diagram id="PwGHslsYO9UBbgVLYSdC" name="Page-1">
        <mxGraphModel dx="1387" dy="556" grid="1" gridSize="10" guides="1" tooltips="1" connect="1" arrows="1" fold="1" page="1" pageScale="1" pageWidth="850" pageHeight="1100" background="#ffffff" math="0" shadow="1">
            <root>
                <mxCell id="0"/>
                <mxCell id="1" parent="0"/>
                <mxCell id="15" style="edgeStyle=orthogonalEdgeStyle;html=1;entryX=0.5;entryY=0;entryDx=0;entryDy=0;entryPerimeter=0;strokeColor=#333333;exitX=0.5;exitY=1;exitDx=0;exitDy=0;exitPerimeter=0;curved=1;strokeWidth=3;startArrow=oval;startFill=1;" parent="1" source="2" target="8" edge="1">
                    <mxGeometry relative="1" as="geometry"/>
                </mxCell>
                <mxCell id="33" style="edgeStyle=orthogonalEdgeStyle;curved=1;html=1;entryX=0;entryY=0.5;entryDx=0;entryDy=0;entryPerimeter=0;strokeColor=#333333;strokeWidth=2;fontColor=#333333;startArrow=oval;startFill=1;" parent="1" source="2" target="28" edge="1">
                    <mxGeometry relative="1" as="geometry"/>
                </mxCell>
                <mxCell id="34" style="edgeStyle=orthogonalEdgeStyle;curved=1;html=1;entryX=0;entryY=0.5;entryDx=0;entryDy=0;entryPerimeter=0;strokeColor=#333333;strokeWidth=2;fontColor=#333333;startArrow=oval;startFill=1;" parent="1" source="2" target="29" edge="1">
                    <mxGeometry relative="1" as="geometry"/>
                </mxCell>
                <mxCell id="35" style="edgeStyle=orthogonalEdgeStyle;curved=1;html=1;strokeColor=#333333;strokeWidth=2;fontColor=#333333;startArrow=oval;startFill=1;" parent="1" source="2" target="30" edge="1">
                    <mxGeometry relative="1" as="geometry"/>
                </mxCell>
                <mxCell id="2" value="&lt;div style=&quot;font-family: &amp;quot;Droid Sans Mono&amp;quot;, &amp;quot;monospace&amp;quot;, monospace; line-height: 19px;&quot;&gt;&lt;font color=&quot;#000000&quot; style=&quot;font-size: 10px;&quot;&gt;&lt;b&gt;Ferramentas e linguagens deste ciclo&lt;/b&gt;&lt;/font&gt;&lt;/div&gt;" style="verticalLabelPosition=middle;verticalAlign=middle;html=1;shape=mxgraph.basic.diag_round_rect;dx=6;whiteSpace=wrap;labelPosition=center;align=center;fillStyle=solid;labelBackgroundColor=#FFFFFF;fillColor=#0050ef;fontColor=#ffffff;strokeColor=#001DBC;" parent="1" vertex="1">
                    <mxGeometry x="348.75" y="150" width="152.5" height="60" as="geometry"/>
                </mxCell>
                <mxCell id="17" style="edgeStyle=orthogonalEdgeStyle;curved=1;html=1;exitX=1;exitY=0.5;exitDx=0;exitDy=0;exitPerimeter=0;entryX=0.5;entryY=0;entryDx=0;entryDy=0;entryPerimeter=0;strokeColor=#333333;startArrow=oval;startFill=1;strokeWidth=3;" parent="1" source="8" target="9" edge="1">
                    <mxGeometry relative="1" as="geometry"/>
                </mxCell>
                <mxCell id="51" style="edgeStyle=orthogonalEdgeStyle;curved=1;html=1;exitX=0;exitY=0.5;exitDx=0;exitDy=0;exitPerimeter=0;entryX=0.5;entryY=1;entryDx=0;entryDy=0;entryPerimeter=0;strokeColor=#333333;strokeWidth=2;fontSize=10;fontColor=#333333;startArrow=oval;startFill=1;" parent="1" source="8" target="37" edge="1">
                    <mxGeometry relative="1" as="geometry"/>
                </mxCell>
                <mxCell id="52" style="edgeStyle=orthogonalEdgeStyle;curved=1;html=1;entryX=1;entryY=0.5;entryDx=0;entryDy=0;entryPerimeter=0;strokeColor=#333333;strokeWidth=2;fontSize=10;fontColor=#333333;startArrow=oval;startFill=1;" parent="1" source="8" target="38" edge="1">
                    <mxGeometry relative="1" as="geometry"/>
                </mxCell>
                <mxCell id="53" style="edgeStyle=orthogonalEdgeStyle;curved=1;html=1;entryX=1;entryY=0.5;entryDx=0;entryDy=0;entryPerimeter=0;strokeColor=#333333;strokeWidth=2;fontSize=10;fontColor=#333333;startArrow=oval;startFill=1;" parent="1" source="8" target="39" edge="1">
                    <mxGeometry relative="1" as="geometry"/>
                </mxCell>
                <mxCell id="54" style="edgeStyle=orthogonalEdgeStyle;curved=1;html=1;entryX=0.5;entryY=0;entryDx=0;entryDy=0;entryPerimeter=0;strokeColor=#333333;strokeWidth=2;fontSize=10;fontColor=#333333;startArrow=oval;startFill=1;" parent="1" source="8" target="40" edge="1">
                    <mxGeometry relative="1" as="geometry"/>
                </mxCell>
                <mxCell id="8" value="&lt;div style=&quot;font-family: &amp;quot;Droid Sans Mono&amp;quot;, &amp;quot;monospace&amp;quot;, monospace; line-height: 19px;&quot;&gt;&lt;font color=&quot;#000000&quot; style=&quot;font-size: 10px;&quot;&gt;Arquitetura de Computadores&lt;/font&gt;&lt;/div&gt;" style="verticalLabelPosition=middle;verticalAlign=middle;html=1;shape=mxgraph.basic.diag_round_rect;dx=6;whiteSpace=wrap;labelPosition=center;align=center;fillStyle=solid;fillColor=#76608a;strokeColor=#432D57;fontColor=#ffffff;labelBackgroundColor=#FFFFFF;fontStyle=1" parent="1" vertex="1">
                    <mxGeometry x="180" y="290" width="152.5" height="60" as="geometry"/>
                </mxCell>
                <mxCell id="18" style="edgeStyle=orthogonalEdgeStyle;curved=1;html=1;entryX=0.5;entryY=0;entryDx=0;entryDy=0;entryPerimeter=0;strokeColor=#333333;startArrow=oval;startFill=1;strokeWidth=3;" parent="1" source="9" target="11" edge="1">
                    <mxGeometry relative="1" as="geometry"/>
                </mxCell>
                <mxCell id="92" style="edgeStyle=orthogonalEdgeStyle;curved=1;html=1;exitX=1;exitY=0;exitDx=0;exitDy=0;exitPerimeter=0;entryX=0.5;entryY=1;entryDx=0;entryDy=0;entryPerimeter=0;strokeColor=#333333;strokeWidth=2;fontSize=10;fontColor=#333333;startArrow=oval;startFill=1;" parent="1" source="9" target="77" edge="1">
                    <mxGeometry relative="1" as="geometry"/>
                </mxCell>
                <mxCell id="93" style="edgeStyle=orthogonalEdgeStyle;curved=1;html=1;exitX=1;exitY=0.5;exitDx=0;exitDy=0;exitPerimeter=0;entryX=0;entryY=0.5;entryDx=0;entryDy=0;entryPerimeter=0;strokeColor=#333333;strokeWidth=2;fontSize=10;fontColor=#333333;startArrow=oval;startFill=1;" parent="1" source="9" target="78" edge="1">
                    <mxGeometry relative="1" as="geometry"/>
                </mxCell>
                <mxCell id="100" style="edgeStyle=orthogonalEdgeStyle;curved=1;html=1;entryX=0;entryY=0.5;entryDx=0;entryDy=0;entryPerimeter=0;strokeColor=#333333;strokeWidth=2;fontSize=10;fontColor=#333333;startArrow=oval;startFill=1;" parent="1" source="9" target="79" edge="1">
                    <mxGeometry relative="1" as="geometry"/>
                </mxCell>
                <mxCell id="122" style="edgeStyle=orthogonalEdgeStyle;curved=1;html=1;exitX=0.5;exitY=1;exitDx=0;exitDy=0;exitPerimeter=0;entryX=0.5;entryY=0;entryDx=0;entryDy=0;entryPerimeter=0;strokeColor=#333333;strokeWidth=2;fontSize=10;fontColor=#333333;startArrow=oval;startFill=1;" parent="1" source="9" target="80" edge="1">
                    <mxGeometry relative="1" as="geometry"/>
                </mxCell>
                <mxCell id="9" value="&lt;div style=&quot;font-family: &amp;quot;Droid Sans Mono&amp;quot;, &amp;quot;monospace&amp;quot;, monospace; line-height: 19px;&quot;&gt;&lt;font color=&quot;#000000&quot; size=&quot;1&quot; style=&quot;&quot;&gt;&lt;b style=&quot;background-color: rgb(255, 255, 255); font-size: 14px;&quot;&gt;&amp;nbsp; &amp;nbsp;&amp;nbsp;&lt;/b&gt;&lt;b style=&quot;background-color: rgb(255, 255, 255); font-size: 12px;&quot;&gt;Plataformas&lt;/b&gt;&lt;b style=&quot;background-color: rgb(255, 255, 255); font-size: 14px;&quot;&gt;&amp;nbsp; &amp;nbsp;&amp;nbsp;&lt;/b&gt;&lt;/font&gt;&lt;/div&gt;" style="verticalLabelPosition=middle;verticalAlign=middle;html=1;shape=mxgraph.basic.diag_round_rect;dx=6;whiteSpace=wrap;labelPosition=center;align=center;fillStyle=solid;fillColor=#6a00ff;strokeColor=#3700CC;fontColor=#ffffff;labelBackgroundColor=#FFFFFF;" parent="1" vertex="1">
                    <mxGeometry x="620" y="400" width="152.5" height="60" as="geometry"/>
                </mxCell>
                <mxCell id="10" value="" style="group;fillColor=none;fontColor=#ffffff;strokeColor=none;" parent="1" vertex="1" connectable="0">
                    <mxGeometry x="355" y="60" width="140" height="50" as="geometry"/>
                </mxCell>
                <mxCell id="3" value="" style="verticalLabelPosition=bottom;verticalAlign=top;html=1;shape=mxgraph.basic.rounded_frame;dx=4;whiteSpace=wrap;fillColor=#4D4D4D;strokeWidth=0;fillStyle=solid;gradientColor=none;" parent="10" vertex="1">
                    <mxGeometry width="140" height="50" as="geometry"/>
                </mxCell>
                <mxCell id="4" value="&lt;font color=&quot;#000000&quot; style=&quot;font-size: 16px;&quot;&gt;&lt;b&gt;Ciclo 01: InÃ­cio&lt;/b&gt;&lt;/font&gt;" style="text;html=1;align=center;verticalAlign=middle;resizable=0;points=[];autosize=1;strokeColor=none;fillColor=none;" parent="10" vertex="1">
                    <mxGeometry y="10" width="140" height="30" as="geometry"/>
                </mxCell>
                <mxCell id="19" style="edgeStyle=orthogonalEdgeStyle;curved=1;html=1;entryX=0.5;entryY=0;entryDx=0;entryDy=0;entryPerimeter=0;strokeColor=#333333;startArrow=oval;startFill=1;strokeWidth=3;" parent="1" source="11" target="12" edge="1">
                    <mxGeometry relative="1" as="geometry">
                        <Array as="points">
                            <mxPoint x="356" y="740"/>
                            <mxPoint x="887" y="740"/>
                        </Array>
                    </mxGeometry>
                </mxCell>
                <mxCell id="11" value="&lt;div style=&quot;font-family: &amp;quot;Droid Sans Mono&amp;quot;, &amp;quot;monospace&amp;quot;, monospace; line-height: 19px;&quot;&gt;&lt;font size=&quot;1&quot; color=&quot;#000000&quot; style=&quot;&quot;&gt;&lt;b style=&quot;font-size: 12px;&quot;&gt;LÃ³gica de programaÃ§Ã£o&lt;/b&gt;&lt;/font&gt;&lt;/div&gt;" style="verticalLabelPosition=middle;verticalAlign=middle;html=1;shape=mxgraph.basic.diag_round_rect;dx=6;whiteSpace=wrap;labelPosition=center;align=center;fillStyle=solid;fillColor=#008a00;strokeColor=#005700;fontColor=#ffffff;labelBackgroundColor=#FFFFFF;" parent="1" vertex="1">
                    <mxGeometry x="280" y="605" width="152.5" height="60" as="geometry"/>
                </mxCell>
                <mxCell id="20" style="edgeStyle=orthogonalEdgeStyle;curved=1;html=1;exitX=0;exitY=0.5;exitDx=0;exitDy=0;exitPerimeter=0;entryX=0.5;entryY=0;entryDx=0;entryDy=0;entryPerimeter=0;strokeColor=#333333;startArrow=oval;startFill=1;strokeWidth=3;" parent="1" source="12" target="13" edge="1">
                    <mxGeometry relative="1" as="geometry"/>
                </mxCell>
                <mxCell id="12" value="&lt;div style=&quot;font-family: &amp;quot;Droid Sans Mono&amp;quot;, &amp;quot;monospace&amp;quot;, monospace; line-height: 19px; font-size: 14px;&quot;&gt;&lt;div style=&quot;line-height: 19px;&quot;&gt;&lt;font style=&quot;font-size: 14px;&quot;&gt;&lt;b&gt;Linguagens na&amp;nbsp;&lt;/b&gt;&lt;/font&gt;&lt;b&gt;tecnologia&lt;/b&gt;&lt;/div&gt;&lt;/div&gt;" style="verticalLabelPosition=middle;verticalAlign=middle;html=1;shape=mxgraph.basic.diag_round_rect;dx=6;whiteSpace=wrap;labelPosition=center;align=center;fillStyle=solid;fillColor=#fa6800;strokeColor=#C73500;fontColor=#000000;labelBackgroundColor=#FFFFFF;" parent="1" vertex="1">
                    <mxGeometry x="810.5" y="840" width="152.5" height="60" as="geometry"/>
                </mxCell>
                <mxCell id="21" style="edgeStyle=orthogonalEdgeStyle;curved=1;html=1;exitX=1;exitY=0.5;exitDx=0;exitDy=0;exitPerimeter=0;entryX=0.5;entryY=0;entryDx=0;entryDy=0;entryPerimeter=0;strokeColor=#333333;startArrow=oval;startFill=1;strokeWidth=3;" parent="1" source="13" target="14" edge="1">
                    <mxGeometry relative="1" as="geometry"/>
                </mxCell>
                <mxCell id="13" value="&lt;div style=&quot;font-family: &amp;quot;Droid Sans Mono&amp;quot;, &amp;quot;monospace&amp;quot;, monospace; line-height: 19px; font-size: 16px;&quot;&gt;&lt;font style=&quot;font-size: 16px;&quot; color=&quot;#000000&quot;&gt;&lt;b style=&quot;&quot;&gt;&amp;nbsp;Linguagens de&amp;nbsp;&lt;br&gt;&lt;/b&gt;&lt;/font&gt;&lt;/div&gt;&lt;div style=&quot;font-family: &amp;quot;Droid Sans Mono&amp;quot;, &amp;quot;monospace&amp;quot;, monospace; line-height: 19px; font-size: 16px;&quot;&gt;&lt;font style=&quot;font-size: 16px;&quot;&gt;&lt;div style=&quot;line-height: 19px;&quot;&gt;&lt;font color=&quot;#000000&quot; style=&quot;font-size: 16px;&quot;&gt;&lt;b style=&quot;&quot;&gt;programaÃ§Ã£o&lt;/b&gt;&lt;/font&gt;&lt;/div&gt;&lt;/font&gt;&lt;/div&gt;" style="verticalLabelPosition=middle;verticalAlign=middle;html=1;shape=mxgraph.basic.diag_round_rect;dx=6;whiteSpace=wrap;labelPosition=center;align=center;fillStyle=solid;fillColor=#e51400;strokeColor=#B20000;fontColor=#ffffff;labelBackgroundColor=#FFFFFF;" parent="1" vertex="1">
                    <mxGeometry x="202.5" y="1020" width="152.5" height="60" as="geometry"/>
                </mxCell>
                <mxCell id="26" style="edgeStyle=orthogonalEdgeStyle;curved=1;html=1;exitX=0;exitY=0.5;exitDx=0;exitDy=0;exitPerimeter=0;strokeColor=#333333;strokeWidth=3;startArrow=oval;startFill=1;entryX=0.5;entryY=0;entryDx=0;entryDy=0;entryPerimeter=0;" parent="1" source="14" target="268" edge="1">
                    <mxGeometry relative="1" as="geometry">
                        <mxPoint x="520" y="1450" as="targetPoint"/>
                    </mxGeometry>
                </mxCell>
                <mxCell id="248" style="edgeStyle=entityRelationEdgeStyle;html=1;entryX=0;entryY=0.5;entryDx=0;entryDy=0;entryPerimeter=0;fontSize=20;fontColor=#000000;strokeColor=#333333;strokeWidth=3;exitX=1;exitY=0.5;exitDx=0;exitDy=0;exitPerimeter=0;" parent="1" source="14" target="240" edge="1">
                    <mxGeometry relative="1" as="geometry"/>
                </mxCell>
                <mxCell id="249" style="edgeStyle=entityRelationEdgeStyle;html=1;entryX=0;entryY=0.5;entryDx=0;entryDy=0;entryPerimeter=0;strokeColor=#333333;strokeWidth=3;fontSize=20;fontColor=#000000;" parent="1" source="14" target="241" edge="1">
                    <mxGeometry relative="1" as="geometry"/>
                </mxCell>
                <mxCell id="250" style="edgeStyle=entityRelationEdgeStyle;html=1;entryX=0;entryY=0.5;entryDx=0;entryDy=0;entryPerimeter=0;strokeColor=#333333;strokeWidth=3;fontSize=20;fontColor=#000000;" parent="1" source="14" target="242" edge="1">
                    <mxGeometry relative="1" as="geometry"/>
                </mxCell>
                <mxCell id="266" style="edgeStyle=orthogonalEdgeStyle;curved=1;html=1;entryX=0;entryY=0.5;entryDx=0;entryDy=0;entryPerimeter=0;strokeColor=#333333;strokeWidth=3;fontSize=20;fontColor=#000000;" parent="1" source="14" target="239" edge="1">
                    <mxGeometry relative="1" as="geometry"/>
                </mxCell>
                <mxCell id="14" value="&lt;div style=&quot;font-family: &amp;quot;Droid Sans Mono&amp;quot;, &amp;quot;monospace&amp;quot;, monospace; line-height: 19px;&quot;&gt;&lt;/div&gt;&lt;span style=&quot;font-family: &amp;quot;Droid Sans Mono&amp;quot;, &amp;quot;monospace&amp;quot;, monospace;&quot;&gt;&lt;b style=&quot;&quot;&gt;&lt;font style=&quot;font-size: 20px;&quot; color=&quot;#000000&quot;&gt;&amp;nbsp;Algoritmos&amp;nbsp;&lt;/font&gt;&lt;/b&gt;&lt;/span&gt;" style="verticalLabelPosition=middle;verticalAlign=middle;html=1;shape=mxgraph.basic.diag_round_rect;dx=6;whiteSpace=wrap;labelPosition=center;align=center;fillStyle=solid;fillColor=#a0522d;strokeColor=#6D1F00;fontColor=#ffffff;labelBackgroundColor=#FFFFFF;" parent="1" vertex="1">
                    <mxGeometry x="562.5" y="1255" width="152.5" height="60" as="geometry"/>
                </mxCell>
                <mxCell id="16" style="edgeStyle=orthogonalEdgeStyle;curved=1;html=1;entryX=0.5;entryY=0;entryDx=0;entryDy=0;entryPerimeter=0;strokeColor=#333333;strokeWidth=3;startArrow=oval;startFill=1;" parent="1" source="3" target="2" edge="1">
                    <mxGeometry relative="1" as="geometry"/>
                </mxCell>
                <mxCell id="32" style="edgeStyle=orthogonalEdgeStyle;curved=1;html=1;entryX=0;entryY=0.5;entryDx=0;entryDy=0;entryPerimeter=0;strokeColor=#333333;strokeWidth=2;fontColor=#333333;startArrow=oval;startFill=1;" parent="1" source="28" target="31" edge="1">
                    <mxGeometry relative="1" as="geometry"/>
                </mxCell>
                <mxCell id="28" value="&lt;font&gt;&lt;font style=&quot;font-size: 10px;&quot;&gt;Visual Studio Code&lt;/font&gt;&lt;br&gt;&lt;/font&gt;" style="whiteSpace=wrap;html=1;shape=mxgraph.basic.document;fillStyle=solid;fillColor=#3333FF;strokeColor=default;fontStyle=1;fontColor=#FFFFFF;strokeWidth=1;" parent="1" vertex="1">
                    <mxGeometry x="562.5" y="110" width="107.5" height="40" as="geometry"/>
                </mxCell>
                <mxCell id="29" value="&lt;font&gt;&lt;font style=&quot;font-size: 10px;&quot;&gt;Pseudolinguagem&lt;/font&gt;&lt;br&gt;&lt;/font&gt;" style="whiteSpace=wrap;html=1;shape=mxgraph.basic.document;fillStyle=solid;fillColor=#3333FF;strokeColor=#FFFFFF;fontStyle=1;fontColor=#FFFFFF;" parent="1" vertex="1">
                    <mxGeometry x="562.5" y="165" width="107.5" height="30" as="geometry"/>
                </mxCell>
                <mxCell id="30" value="&lt;font&gt;&lt;font style=&quot;font-size: 10px;&quot;&gt;JavaScript&lt;/font&gt;&lt;br&gt;&lt;/font&gt;" style="whiteSpace=wrap;html=1;shape=mxgraph.basic.document;fillStyle=solid;fillColor=#3333FF;strokeColor=#FFFFFF;fontStyle=1;fontColor=#FFFFFF;" parent="1" vertex="1">
                    <mxGeometry x="562.5" y="210" width="107.5" height="30" as="geometry"/>
                </mxCell>
                <mxCell id="31" value="&lt;font&gt;&lt;font style=&quot;font-size: 10px;&quot;&gt;Live Server&lt;/font&gt;&lt;br&gt;&lt;/font&gt;" style="whiteSpace=wrap;html=1;shape=mxgraph.basic.document;fillStyle=solid;fillColor=#3333FF;strokeColor=#FFFFFF;fontStyle=1;fontColor=#FFFFFF;" parent="1" vertex="1">
                    <mxGeometry x="720" y="135" width="90" height="30" as="geometry"/>
                </mxCell>
                <mxCell id="56" style="edgeStyle=orthogonalEdgeStyle;curved=1;html=1;exitX=0.5;exitY=0;exitDx=0;exitDy=0;exitPerimeter=0;entryX=0.5;entryY=1;entryDx=0;entryDy=0;entryPerimeter=0;strokeColor=#333333;strokeWidth=2;fontSize=10;fontColor=#333333;startArrow=oval;startFill=1;" parent="1" source="37" target="41" edge="1">
                    <mxGeometry relative="1" as="geometry"/>
                </mxCell>
                <mxCell id="57" style="edgeStyle=orthogonalEdgeStyle;curved=1;html=1;exitX=0.5;exitY=0;exitDx=0;exitDy=0;exitPerimeter=0;entryX=1;entryY=0.5;entryDx=0;entryDy=0;entryPerimeter=0;strokeColor=#333333;strokeWidth=2;fontSize=10;fontColor=#333333;startArrow=oval;startFill=1;" parent="1" source="37" target="42" edge="1">
                    <mxGeometry relative="1" as="geometry"/>
                </mxCell>
                <mxCell id="58" style="edgeStyle=orthogonalEdgeStyle;curved=1;html=1;exitX=0;exitY=0.5;exitDx=0;exitDy=0;exitPerimeter=0;entryX=1;entryY=0.5;entryDx=0;entryDy=0;entryPerimeter=0;strokeColor=#333333;strokeWidth=2;fontSize=10;fontColor=#333333;startArrow=oval;startFill=1;" parent="1" source="37" target="43" edge="1">
                    <mxGeometry relative="1" as="geometry"/>
                </mxCell>
                <mxCell id="37" value="&lt;font&gt;&lt;font style=&quot;font-size: 10px;&quot;&gt;MemÃ³ria&lt;/font&gt;&lt;br&gt;&lt;/font&gt;" style="whiteSpace=wrap;html=1;shape=mxgraph.basic.document;fillStyle=solid;fillColor=#B266FF;strokeColor=#FFFFFF;fontStyle=1;fontColor=#FFFFFF;" parent="1" vertex="1">
                    <mxGeometry x="60" y="220" width="90" height="30" as="geometry"/>
                </mxCell>
                <mxCell id="59" style="edgeStyle=orthogonalEdgeStyle;curved=1;html=1;exitX=0;exitY=0.5;exitDx=0;exitDy=0;exitPerimeter=0;entryX=1;entryY=0.5;entryDx=0;entryDy=0;entryPerimeter=0;strokeColor=#333333;strokeWidth=2;fontSize=10;fontColor=#333333;startArrow=oval;startFill=1;" parent="1" source="38" target="44" edge="1">
                    <mxGeometry relative="1" as="geometry"/>
                </mxCell>
                <mxCell id="60" style="edgeStyle=orthogonalEdgeStyle;curved=1;html=1;exitX=0;exitY=0.5;exitDx=0;exitDy=0;exitPerimeter=0;entryX=1;entryY=0.5;entryDx=0;entryDy=0;entryPerimeter=0;strokeColor=#333333;strokeWidth=2;fontSize=10;fontColor=#333333;startArrow=oval;startFill=1;" parent="1" source="38" target="45" edge="1">
                    <mxGeometry relative="1" as="geometry"/>
                </mxCell>
                <mxCell id="38" value="&lt;font&gt;&lt;font style=&quot;font-size: 10px;&quot;&gt;Processamento&lt;/font&gt;&lt;br&gt;&lt;/font&gt;" style="whiteSpace=wrap;html=1;shape=mxgraph.basic.document;fillStyle=solid;fillColor=#B266FF;strokeColor=#FFFFFF;fontStyle=1;fontColor=#FFFFFF;" parent="1" vertex="1">
                    <mxGeometry x="-20" y="305" width="90" height="30" as="geometry"/>
                </mxCell>
                <mxCell id="62" style="edgeStyle=orthogonalEdgeStyle;curved=1;html=1;entryX=0.5;entryY=0;entryDx=0;entryDy=0;entryPerimeter=0;strokeColor=#333333;strokeWidth=2;fontSize=10;fontColor=#333333;startArrow=oval;startFill=1;" parent="1" source="39" target="46" edge="1">
                    <mxGeometry relative="1" as="geometry"/>
                </mxCell>
                <mxCell id="63" style="edgeStyle=orthogonalEdgeStyle;curved=1;html=1;entryX=1;entryY=0.5;entryDx=0;entryDy=0;entryPerimeter=0;strokeColor=#333333;strokeWidth=2;fontSize=10;fontColor=#333333;startArrow=oval;startFill=1;" parent="1" source="39" target="47" edge="1">
                    <mxGeometry relative="1" as="geometry"/>
                </mxCell>
                <mxCell id="39" value="&lt;font&gt;&lt;font style=&quot;font-size: 10px;&quot;&gt;PerifÃ©ricos&lt;/font&gt;&lt;br&gt;&lt;/font&gt;" style="whiteSpace=wrap;html=1;shape=mxgraph.basic.document;fillStyle=solid;fillColor=#B266FF;strokeColor=#FFFFFF;fontStyle=1;fontColor=#FFFFFF;" parent="1" vertex="1">
                    <mxGeometry x="-30" y="360" width="90" height="30" as="geometry"/>
                </mxCell>
                <mxCell id="64" style="edgeStyle=orthogonalEdgeStyle;curved=1;html=1;entryX=0.5;entryY=0;entryDx=0;entryDy=0;entryPerimeter=0;strokeColor=#333333;strokeWidth=2;fontSize=10;fontColor=#333333;startArrow=oval;startFill=1;" parent="1" source="40" target="49" edge="1">
                    <mxGeometry relative="1" as="geometry"/>
                </mxCell>
                <mxCell id="65" style="edgeStyle=orthogonalEdgeStyle;curved=1;html=1;entryX=0.5;entryY=0;entryDx=0;entryDy=0;entryPerimeter=0;strokeColor=#333333;strokeWidth=2;fontSize=10;fontColor=#333333;startArrow=oval;startFill=1;" parent="1" source="40" target="48" edge="1">
                    <mxGeometry relative="1" as="geometry"/>
                </mxCell>
                <mxCell id="40" value="&lt;font&gt;&lt;font style=&quot;font-size: 10px;&quot;&gt;Rede&lt;/font&gt;&lt;br&gt;&lt;/font&gt;" style="whiteSpace=wrap;html=1;shape=mxgraph.basic.document;fillStyle=solid;fillColor=#B266FF;strokeColor=#FFFFFF;fontStyle=1;fontColor=#FFFFFF;" parent="1" vertex="1">
                    <mxGeometry x="80" y="400" width="90" height="30" as="geometry"/>
                </mxCell>
                <mxCell id="41" value="&lt;font&gt;&lt;font style=&quot;font-size: 10px;&quot;&gt;MemÃ³ria&lt;br&gt;&lt;/font&gt;RAM&lt;br&gt;&lt;/font&gt;" style="whiteSpace=wrap;html=1;shape=mxgraph.basic.document;fillStyle=solid;fillColor=#8160A1;strokeColor=#FFFFFF;fontStyle=1;fontColor=#FFFFFF;" parent="1" vertex="1">
                    <mxGeometry x="50" y="150" width="90" height="30" as="geometry"/>
                </mxCell>
                <mxCell id="42" value="&lt;font&gt;&lt;font style=&quot;font-size: 10px;&quot;&gt;MemÃ³ria&lt;br&gt;&lt;/font&gt;HD&lt;br&gt;&lt;/font&gt;" style="whiteSpace=wrap;html=1;shape=mxgraph.basic.document;fillStyle=solid;fillColor=#8160A1;strokeColor=#FFFFFF;fontStyle=1;fontColor=#FFFFFF;" parent="1" vertex="1">
                    <mxGeometry x="-60" y="180" width="90" height="30" as="geometry"/>
                </mxCell>
                <mxCell id="43" value="&lt;font&gt;&lt;font style=&quot;font-size: 10px;&quot;&gt;MemÃ³ria&lt;br&gt;&lt;/font&gt;SSD&lt;br&gt;&lt;/font&gt;" style="whiteSpace=wrap;html=1;shape=mxgraph.basic.document;fillStyle=solid;fillColor=#8160A1;strokeColor=#FFFFFF;fontStyle=1;fontColor=#FFFFFF;" parent="1" vertex="1">
                    <mxGeometry x="-60" y="230" width="90" height="30" as="geometry"/>
                </mxCell>
                <mxCell id="44" value="&lt;font&gt;&lt;span style=&quot;font-size: 10px;&quot;&gt;CPU&lt;/span&gt;&lt;br&gt;&lt;/font&gt;" style="whiteSpace=wrap;html=1;shape=mxgraph.basic.document;fillStyle=solid;fillColor=#8160A1;strokeColor=#FFFFFF;fontStyle=1;fontColor=#FFFFFF;" parent="1" vertex="1">
                    <mxGeometry x="-160" y="280" width="90" height="30" as="geometry"/>
                </mxCell>
                <mxCell id="45" value="&lt;font&gt;&lt;span style=&quot;font-size: 10px;&quot;&gt;GPU&lt;/span&gt;&lt;br&gt;&lt;/font&gt;" style="whiteSpace=wrap;html=1;shape=mxgraph.basic.document;fillStyle=solid;fillColor=#8160A1;strokeColor=#FFFFFF;fontStyle=1;fontColor=#FFFFFF;" parent="1" vertex="1">
                    <mxGeometry x="-160" y="320" width="90" height="30" as="geometry"/>
                </mxCell>
                <mxCell id="76" style="edgeStyle=orthogonalEdgeStyle;curved=1;html=1;strokeColor=#333333;strokeWidth=2;fontSize=10;fontColor=#333333;startArrow=oval;startFill=1;" parent="1" source="46" target="66" edge="1">
                    <mxGeometry relative="1" as="geometry"/>
                </mxCell>
                <mxCell id="46" value="&lt;font&gt;&lt;span style=&quot;font-size: 10px;&quot;&gt;Dispositivos&lt;br&gt;&lt;/span&gt;de SaÃ­da&lt;br&gt;&lt;/font&gt;" style="whiteSpace=wrap;html=1;shape=mxgraph.basic.document;fillStyle=solid;fillColor=#8160A1;strokeColor=#FFFFFF;fontStyle=1;fontColor=#FFFFFF;" parent="1" vertex="1">
                    <mxGeometry x="-130" y="390" width="90" height="30" as="geometry"/>
                </mxCell>
                <mxCell id="71" style="edgeStyle=orthogonalEdgeStyle;curved=1;html=1;entryX=1;entryY=0.5;entryDx=0;entryDy=0;entryPerimeter=0;strokeColor=#333333;strokeWidth=2;fontSize=10;fontColor=#333333;startArrow=oval;startFill=1;" parent="1" source="47" target="67" edge="1">
                    <mxGeometry relative="1" as="geometry"/>
                </mxCell>
                <mxCell id="72" style="edgeStyle=orthogonalEdgeStyle;curved=1;html=1;entryX=1;entryY=0.5;entryDx=0;entryDy=0;entryPerimeter=0;strokeColor=#333333;strokeWidth=2;fontSize=10;fontColor=#333333;startArrow=oval;startFill=1;" parent="1" source="47" target="68" edge="1">
                    <mxGeometry relative="1" as="geometry"/>
                </mxCell>
                <mxCell id="73" style="edgeStyle=orthogonalEdgeStyle;curved=1;html=1;entryX=0.5;entryY=0;entryDx=0;entryDy=0;entryPerimeter=0;strokeColor=#333333;strokeWidth=2;fontSize=10;fontColor=#333333;startArrow=oval;startFill=1;" parent="1" source="47" target="70" edge="1">
                    <mxGeometry relative="1" as="geometry"/>
                </mxCell>
                <mxCell id="47" value="&lt;font&gt;&lt;span style=&quot;font-size: 10px;&quot;&gt;Dispositivos&lt;br&gt;&lt;/span&gt;de Entrada&lt;br&gt;&lt;/font&gt;" style="whiteSpace=wrap;html=1;shape=mxgraph.basic.document;fillStyle=solid;fillColor=#8160A1;strokeColor=#FFFFFF;fontStyle=1;fontColor=#FFFFFF;" parent="1" vertex="1">
                    <mxGeometry x="-90" y="440" width="90" height="30" as="geometry"/>
                </mxCell>
                <mxCell id="48" value="&lt;font&gt;&lt;span style=&quot;font-size: 10px;&quot;&gt;Ethernet&lt;/span&gt;&lt;br&gt;&lt;/font&gt;" style="whiteSpace=wrap;html=1;shape=mxgraph.basic.document;fillStyle=solid;fillColor=#8160A1;strokeColor=#FFFFFF;fontStyle=1;fontColor=#FFFFFF;" parent="1" vertex="1">
                    <mxGeometry x="20" y="480" width="90" height="30" as="geometry"/>
                </mxCell>
                <mxCell id="49" value="&lt;font&gt;&lt;span style=&quot;font-size: 10px;&quot;&gt;Wifi&lt;/span&gt;&lt;br&gt;&lt;/font&gt;" style="whiteSpace=wrap;html=1;shape=mxgraph.basic.document;fillStyle=solid;fillColor=#8160A1;strokeColor=#FFFFFF;fontStyle=1;fontColor=#FFFFFF;" parent="1" vertex="1">
                    <mxGeometry x="130" y="460" width="90" height="30" as="geometry"/>
                </mxCell>
                <mxCell id="66" value="&lt;font&gt;&lt;span style=&quot;font-size: 10px;&quot;&gt;Monitor&lt;/span&gt;&lt;br&gt;&lt;/font&gt;" style="whiteSpace=wrap;html=1;shape=mxgraph.basic.document;fillStyle=solid;fillColor=#8160A1;strokeColor=#FFFFFF;fontStyle=1;fontColor=#FFFFFF;" parent="1" vertex="1">
                    <mxGeometry x="-250" y="390" width="90" height="30" as="geometry"/>
                </mxCell>
                <mxCell id="67" value="&lt;font&gt;&lt;span style=&quot;font-size: 10px;&quot;&gt;Teclado&lt;/span&gt;&lt;br&gt;&lt;/font&gt;" style="whiteSpace=wrap;html=1;shape=mxgraph.basic.document;fillStyle=solid;fillColor=#8160A1;strokeColor=#FFFFFF;fontStyle=1;fontColor=#FFFFFF;" parent="1" vertex="1">
                    <mxGeometry x="-230" y="440" width="90" height="30" as="geometry"/>
                </mxCell>
                <mxCell id="68" value="&lt;font&gt;&lt;span style=&quot;font-size: 10px;&quot;&gt;Mouse&lt;/span&gt;&lt;br&gt;&lt;/font&gt;" style="whiteSpace=wrap;html=1;shape=mxgraph.basic.document;fillStyle=solid;fillColor=#8160A1;strokeColor=#FFFFFF;fontStyle=1;fontColor=#FFFFFF;" parent="1" vertex="1">
                    <mxGeometry x="-220" y="500" width="90" height="30" as="geometry"/>
                </mxCell>
                <mxCell id="70" value="&lt;font&gt;&lt;span style=&quot;font-size: 10px;&quot;&gt;Touch&lt;/span&gt;&lt;br&gt;&lt;/font&gt;" style="whiteSpace=wrap;html=1;shape=mxgraph.basic.document;fillStyle=solid;fillColor=#8160A1;strokeColor=#FFFFFF;fontStyle=1;fontColor=#FFFFFF;" parent="1" vertex="1">
                    <mxGeometry x="-110" y="535" width="90" height="30" as="geometry"/>
                </mxCell>
                <mxCell id="87" style="edgeStyle=orthogonalEdgeStyle;curved=1;html=1;exitX=0.5;exitY=0;exitDx=0;exitDy=0;exitPerimeter=0;entryX=0;entryY=0.5;entryDx=0;entryDy=0;entryPerimeter=0;strokeColor=#333333;strokeWidth=2;fontSize=10;fontColor=#333333;startArrow=oval;startFill=1;" parent="1" source="77" target="81" edge="1">
                    <mxGeometry relative="1" as="geometry"/>
                </mxCell>
                <mxCell id="91" style="edgeStyle=orthogonalEdgeStyle;curved=1;html=1;entryX=0;entryY=0.5;entryDx=0;entryDy=0;entryPerimeter=0;strokeColor=#333333;strokeWidth=2;fontSize=10;fontColor=#333333;startArrow=oval;startFill=1;" parent="1" source="77" target="85" edge="1">
                    <mxGeometry relative="1" as="geometry"/>
                </mxCell>
                <mxCell id="77" value="&lt;font&gt;&lt;font style=&quot;font-size: 10px;&quot;&gt;Computadores de Ãrea de trabalho&lt;/font&gt;&lt;br&gt;&lt;/font&gt;" style="whiteSpace=wrap;html=1;shape=mxgraph.basic.document;fillStyle=solid;fillColor=#6600CC;strokeColor=#FFFFFF;fontColor=#FFFFFF;fontStyle=1" parent="1" vertex="1">
                    <mxGeometry x="760" y="330" width="90" height="30" as="geometry"/>
                </mxCell>
                <mxCell id="95" style="edgeStyle=orthogonalEdgeStyle;curved=1;html=1;entryX=0;entryY=0.5;entryDx=0;entryDy=0;entryPerimeter=0;strokeColor=#333333;strokeWidth=2;fontSize=10;fontColor=#333333;startArrow=oval;startFill=1;" parent="1" source="78" target="94" edge="1">
                    <mxGeometry relative="1" as="geometry"/>
                </mxCell>
                <mxCell id="102" style="edgeStyle=orthogonalEdgeStyle;curved=1;html=1;exitX=1;exitY=0.5;exitDx=0;exitDy=0;exitPerimeter=0;entryX=0;entryY=0.5;entryDx=0;entryDy=0;entryPerimeter=0;strokeColor=#333333;strokeWidth=2;fontSize=10;fontColor=#333333;startArrow=oval;startFill=1;" parent="1" source="78" target="101" edge="1">
                    <mxGeometry relative="1" as="geometry"/>
                </mxCell>
                <mxCell id="78" value="&lt;font&gt;&lt;font style=&quot;font-size: 10px;&quot;&gt;Dispositivos &lt;br&gt;mÃ³veis&lt;/font&gt;&lt;br&gt;&lt;/font&gt;" style="whiteSpace=wrap;html=1;shape=mxgraph.basic.document;fillStyle=solid;fillColor=#6600CC;strokeColor=#FFFFFF;fontColor=#FFFFFF;fontStyle=1" parent="1" vertex="1">
                    <mxGeometry x="880" y="415" width="90" height="30" as="geometry"/>
                </mxCell>
                <mxCell id="114" style="edgeStyle=orthogonalEdgeStyle;curved=1;html=1;exitX=1;exitY=0.5;exitDx=0;exitDy=0;exitPerimeter=0;entryX=0;entryY=0.5;entryDx=0;entryDy=0;entryPerimeter=0;strokeColor=#333333;strokeWidth=2;fontSize=10;fontColor=#333333;startArrow=oval;startFill=1;" parent="1" source="79" target="113" edge="1">
                    <mxGeometry relative="1" as="geometry"/>
                </mxCell>
                <mxCell id="116" style="edgeStyle=orthogonalEdgeStyle;curved=1;html=1;exitX=0.5;exitY=1;exitDx=0;exitDy=0;exitPerimeter=0;entryX=0.5;entryY=0;entryDx=0;entryDy=0;entryPerimeter=0;strokeColor=#333333;strokeWidth=2;fontSize=10;fontColor=#333333;startArrow=oval;startFill=1;" parent="1" source="79" target="115" edge="1">
                    <mxGeometry relative="1" as="geometry"/>
                </mxCell>
                <mxCell id="79" value="&lt;font&gt;&lt;span style=&quot;font-size: 10px;&quot;&gt;Nuvem ou &lt;br&gt;remotor&lt;/span&gt;&lt;br&gt;&lt;/font&gt;" style="whiteSpace=wrap;html=1;shape=mxgraph.basic.document;fillStyle=solid;fillColor=#6600CC;strokeColor=#FFFFFF;fontColor=#FFFFFF;fontStyle=1" parent="1" vertex="1">
                    <mxGeometry x="850" y="500" width="90" height="30" as="geometry"/>
                </mxCell>
                <mxCell id="126" style="edgeStyle=orthogonalEdgeStyle;curved=1;html=1;exitX=0.5;exitY=1;exitDx=0;exitDy=0;exitPerimeter=0;entryX=0;entryY=0.5;entryDx=0;entryDy=0;entryPerimeter=0;strokeColor=#333333;strokeWidth=2;fontSize=10;fontColor=#333333;startArrow=oval;startFill=1;" parent="1" source="80" target="125" edge="1">
                    <mxGeometry relative="1" as="geometry"/>
                </mxCell>
                <mxCell id="128" style="edgeStyle=orthogonalEdgeStyle;curved=1;html=1;exitX=0.5;exitY=1;exitDx=0;exitDy=0;exitPerimeter=0;entryX=0.5;entryY=0;entryDx=0;entryDy=0;entryPerimeter=0;strokeColor=#333333;strokeWidth=2;fontSize=10;fontColor=#333333;startArrow=oval;startFill=1;" parent="1" source="80" target="127" edge="1">
                    <mxGeometry relative="1" as="geometry"/>
                </mxCell>
                <mxCell id="80" value="&lt;font&gt;&lt;span style=&quot;font-size: 10px;&quot;&gt;Embarcados&lt;/span&gt;&lt;br&gt;&lt;/font&gt;" style="whiteSpace=wrap;html=1;shape=mxgraph.basic.document;fillStyle=solid;fillColor=#6600CC;strokeColor=#FFFFFF;fontColor=#FFFFFF;fontStyle=1" parent="1" vertex="1">
                    <mxGeometry x="720" y="535" width="90" height="30" as="geometry"/>
                </mxCell>
                <mxCell id="88" style="edgeStyle=orthogonalEdgeStyle;curved=1;html=1;exitX=0.5;exitY=0;exitDx=0;exitDy=0;exitPerimeter=0;entryX=0.5;entryY=1;entryDx=0;entryDy=0;entryPerimeter=0;strokeColor=#333333;strokeWidth=2;fontSize=10;fontColor=#333333;startArrow=oval;startFill=1;" parent="1" source="81" target="82" edge="1">
                    <mxGeometry relative="1" as="geometry"/>
                </mxCell>
                <mxCell id="89" style="edgeStyle=orthogonalEdgeStyle;curved=1;html=1;entryX=0.5;entryY=1;entryDx=0;entryDy=0;entryPerimeter=0;strokeColor=#333333;strokeWidth=2;fontSize=10;fontColor=#333333;startArrow=oval;startFill=1;" parent="1" source="81" target="83" edge="1">
                    <mxGeometry relative="1" as="geometry"/>
                </mxCell>
                <mxCell id="90" style="edgeStyle=orthogonalEdgeStyle;curved=1;html=1;entryX=0;entryY=0.5;entryDx=0;entryDy=0;entryPerimeter=0;strokeColor=#333333;strokeWidth=2;fontSize=10;fontColor=#333333;startArrow=oval;startFill=1;" parent="1" source="81" target="84" edge="1">
                    <mxGeometry relative="1" as="geometry"/>
                </mxCell>
                <mxCell id="81" value="&lt;font&gt;&lt;font style=&quot;font-size: 10px;&quot;&gt;Sistemas operacionais&lt;/font&gt;&lt;br&gt;&lt;/font&gt;" style="whiteSpace=wrap;html=1;shape=mxgraph.basic.document;fillStyle=solid;fillColor=#7F00FF;strokeColor=#FFFFFF;fontColor=#FFFFFF;fontStyle=1" parent="1" vertex="1">
                    <mxGeometry x="840" y="270" width="90" height="30" as="geometry"/>
                </mxCell>
                <mxCell id="82" value="&lt;font&gt;&lt;font style=&quot;font-size: 10px;&quot;&gt;Linux&lt;/font&gt;&lt;br&gt;&lt;/font&gt;" style="whiteSpace=wrap;html=1;shape=mxgraph.basic.document;fillStyle=solid;fillColor=#9933FF;strokeColor=#FFFFFF;fontColor=#FFFFFF;fontStyle=1" parent="1" vertex="1">
                    <mxGeometry x="790" y="200" width="90" height="30" as="geometry"/>
                </mxCell>
                <mxCell id="83" value="&lt;font&gt;&lt;font style=&quot;font-size: 10px;&quot;&gt;Windows&lt;/font&gt;&lt;br&gt;&lt;/font&gt;" style="whiteSpace=wrap;html=1;shape=mxgraph.basic.document;fillStyle=solid;fillColor=#9933FF;strokeColor=#FFFFFF;fontColor=#FFFFFF;fontStyle=1" parent="1" vertex="1">
                    <mxGeometry x="900" y="200" width="90" height="30" as="geometry"/>
                </mxCell>
                <mxCell id="84" value="&lt;font&gt;&lt;font style=&quot;font-size: 10px;&quot;&gt;Mac OS&lt;/font&gt;&lt;br&gt;&lt;/font&gt;" style="whiteSpace=wrap;html=1;shape=mxgraph.basic.document;fillStyle=solid;fillColor=#9933FF;strokeColor=#FFFFFF;fontColor=#FFFFFF;fontStyle=1" parent="1" vertex="1">
                    <mxGeometry x="990" y="240" width="90" height="30" as="geometry"/>
                </mxCell>
                <mxCell id="104" style="edgeStyle=orthogonalEdgeStyle;curved=1;html=1;exitX=1;exitY=0.5;exitDx=0;exitDy=0;exitPerimeter=0;entryX=0;entryY=0.5;entryDx=0;entryDy=0;entryPerimeter=0;strokeColor=#333333;strokeWidth=2;fontSize=10;fontColor=#333333;startArrow=oval;startFill=1;" parent="1" source="85" target="103" edge="1">
                    <mxGeometry relative="1" as="geometry"/>
                </mxCell>
                <mxCell id="107" style="edgeStyle=orthogonalEdgeStyle;curved=1;html=1;entryX=0;entryY=0.5;entryDx=0;entryDy=0;entryPerimeter=0;strokeColor=#333333;strokeWidth=2;fontSize=10;fontColor=#333333;startArrow=oval;startFill=1;" parent="1" source="85" target="106" edge="1">
                    <mxGeometry relative="1" as="geometry"/>
                </mxCell>
                <mxCell id="85" value="&lt;font&gt;&lt;font style=&quot;font-size: 10px;&quot;&gt;Arquitetura &lt;br&gt;Desktop&lt;/font&gt;&lt;br&gt;&lt;/font&gt;" style="whiteSpace=wrap;html=1;shape=mxgraph.basic.document;fillStyle=solid;fillColor=#7F00FF;strokeColor=#FFFFFF;fontColor=#FFFFFF;fontStyle=1" parent="1" vertex="1">
                    <mxGeometry x="950" y="310" width="90" height="30" as="geometry"/>
                </mxCell>
                <mxCell id="98" style="edgeStyle=orthogonalEdgeStyle;curved=1;html=1;exitX=1;exitY=0.5;exitDx=0;exitDy=0;exitPerimeter=0;entryX=0;entryY=0.5;entryDx=0;entryDy=0;entryPerimeter=0;strokeColor=#333333;strokeWidth=2;fontSize=10;fontColor=#333333;startArrow=oval;startFill=1;" parent="1" source="94" target="96" edge="1">
                    <mxGeometry relative="1" as="geometry"/>
                </mxCell>
                <mxCell id="99" style="edgeStyle=orthogonalEdgeStyle;curved=1;html=1;entryX=0;entryY=0.5;entryDx=0;entryDy=0;entryPerimeter=0;strokeColor=#333333;strokeWidth=2;fontSize=10;fontColor=#333333;startArrow=oval;startFill=1;" parent="1" source="94" target="97" edge="1">
                    <mxGeometry relative="1" as="geometry"/>
                </mxCell>
                <mxCell id="94" value="&lt;font&gt;&lt;font style=&quot;font-size: 10px;&quot;&gt;Sistemas operacionais&lt;/font&gt;&lt;br&gt;&lt;/font&gt;" style="whiteSpace=wrap;html=1;shape=mxgraph.basic.document;fillStyle=solid;fillColor=#7F00FF;strokeColor=#FFFFFF;fontColor=#FFFFFF;fontStyle=1" parent="1" vertex="1">
                    <mxGeometry x="970" y="370" width="90" height="30" as="geometry"/>
                </mxCell>
                <mxCell id="96" value="&lt;font&gt;&lt;font style=&quot;font-size: 10px;&quot;&gt;Android&lt;/font&gt;&lt;br&gt;&lt;/font&gt;" style="whiteSpace=wrap;html=1;shape=mxgraph.basic.document;fillStyle=solid;fillColor=#9933FF;strokeColor=#FFFFFF;fontColor=#FFFFFF;fontStyle=1" parent="1" vertex="1">
                    <mxGeometry x="1140" y="370" width="90" height="30" as="geometry"/>
                </mxCell>
                <mxCell id="97" value="&lt;font&gt;&lt;font style=&quot;font-size: 10px;&quot;&gt;iOS&lt;/font&gt;&lt;br&gt;&lt;/font&gt;" style="whiteSpace=wrap;html=1;shape=mxgraph.basic.document;fillStyle=solid;fillColor=#9933FF;strokeColor=#FFFFFF;fontColor=#FFFFFF;fontStyle=1" parent="1" vertex="1">
                    <mxGeometry x="1110" y="410" width="90" height="30" as="geometry"/>
                </mxCell>
                <mxCell id="111" style="edgeStyle=orthogonalEdgeStyle;curved=1;html=1;entryX=0;entryY=0.5;entryDx=0;entryDy=0;entryPerimeter=0;strokeColor=#333333;strokeWidth=2;fontSize=10;fontColor=#333333;startArrow=oval;startFill=1;" parent="1" source="101" target="109" edge="1">
                    <mxGeometry relative="1" as="geometry"/>
                </mxCell>
                <mxCell id="112" style="edgeStyle=orthogonalEdgeStyle;curved=1;html=1;exitX=0.5;exitY=1;exitDx=0;exitDy=0;exitPerimeter=0;entryX=0;entryY=0.5;entryDx=0;entryDy=0;entryPerimeter=0;strokeColor=#333333;strokeWidth=2;fontSize=10;fontColor=#333333;startArrow=oval;startFill=1;" parent="1" source="101" target="110" edge="1">
                    <mxGeometry relative="1" as="geometry"/>
                </mxCell>
                <mxCell id="101" value="&lt;font&gt;&lt;font style=&quot;font-size: 10px;&quot;&gt;Arquitetura &lt;br&gt;&lt;/font&gt;Mobile&lt;br&gt;&lt;/font&gt;" style="whiteSpace=wrap;html=1;shape=mxgraph.basic.document;fillStyle=solid;fillColor=#7F00FF;strokeColor=#FFFFFF;fontColor=#FFFFFF;fontStyle=1" parent="1" vertex="1">
                    <mxGeometry x="1010" y="460" width="90" height="30" as="geometry"/>
                </mxCell>
                <mxCell id="103" value="&lt;font&gt;&lt;font style=&quot;font-size: 10px;&quot;&gt;Monolito&lt;/font&gt;&lt;br&gt;&lt;/font&gt;" style="whiteSpace=wrap;html=1;shape=mxgraph.basic.document;fillStyle=solid;fillColor=#9933FF;strokeColor=#FFFFFF;fontColor=#FFFFFF;fontStyle=1" parent="1" vertex="1">
                    <mxGeometry x="1100" y="275" width="90" height="30" as="geometry"/>
                </mxCell>
                <mxCell id="106" value="&lt;font&gt;&lt;font style=&quot;font-size: 10px;&quot;&gt;DistribuÃ­do&lt;/font&gt;&lt;br&gt;&lt;/font&gt;" style="whiteSpace=wrap;html=1;shape=mxgraph.basic.document;fillStyle=solid;fillColor=#9933FF;strokeColor=#FFFFFF;fontColor=#FFFFFF;fontStyle=1" parent="1" vertex="1">
                    <mxGeometry x="1100" y="320" width="90" height="30" as="geometry"/>
                </mxCell>
                <mxCell id="109" value="&lt;font&gt;&lt;font style=&quot;font-size: 10px;&quot;&gt;Monolito&lt;/font&gt;&lt;br&gt;&lt;/font&gt;" style="whiteSpace=wrap;html=1;shape=mxgraph.basic.document;fillStyle=solid;fillColor=#9933FF;strokeColor=#FFFFFF;fontColor=#FFFFFF;fontStyle=1" parent="1" vertex="1">
                    <mxGeometry x="1130" y="460" width="90" height="30" as="geometry"/>
                </mxCell>
                <mxCell id="110" value="&lt;font&gt;&lt;font style=&quot;font-size: 10px;&quot;&gt;Cllente/Servidor&lt;/font&gt;&lt;br&gt;&lt;/font&gt;" style="whiteSpace=wrap;html=1;shape=mxgraph.basic.document;fillStyle=solid;fillColor=#9933FF;strokeColor=#FFFFFF;fontColor=#FFFFFF;fontStyle=1" parent="1" vertex="1">
                    <mxGeometry x="1130" y="500" width="90" height="30" as="geometry"/>
                </mxCell>
                <mxCell id="113" value="&lt;font&gt;&lt;font style=&quot;font-size: 10px;&quot;&gt;Navegadores&lt;/font&gt;&lt;br&gt;&lt;/font&gt;" style="whiteSpace=wrap;html=1;shape=mxgraph.basic.document;fillStyle=solid;fillColor=#7F00FF;strokeColor=#FFFFFF;fontColor=#FFFFFF;fontStyle=1" parent="1" vertex="1">
                    <mxGeometry x="1000" y="540" width="90" height="30" as="geometry"/>
                </mxCell>
                <mxCell id="118" style="edgeStyle=orthogonalEdgeStyle;curved=1;html=1;exitX=0.5;exitY=1;exitDx=0;exitDy=0;exitPerimeter=0;entryX=0.5;entryY=0;entryDx=0;entryDy=0;entryPerimeter=0;strokeColor=#333333;strokeWidth=2;fontSize=10;fontColor=#333333;startArrow=oval;startFill=1;" parent="1" source="115" target="117" edge="1">
                    <mxGeometry relative="1" as="geometry"/>
                </mxCell>
                <mxCell id="120" style="edgeStyle=orthogonalEdgeStyle;curved=1;html=1;exitX=1;exitY=0.5;exitDx=0;exitDy=0;exitPerimeter=0;entryX=0.5;entryY=0;entryDx=0;entryDy=0;entryPerimeter=0;strokeColor=#333333;strokeWidth=2;fontSize=10;fontColor=#333333;startArrow=oval;startFill=1;" parent="1" source="115" target="119" edge="1">
                    <mxGeometry relative="1" as="geometry"/>
                </mxCell>
                <mxCell id="123" style="edgeStyle=orthogonalEdgeStyle;curved=1;html=1;exitX=0.5;exitY=1;exitDx=0;exitDy=0;exitPerimeter=0;entryX=0.5;entryY=0;entryDx=0;entryDy=0;entryPerimeter=0;strokeColor=#333333;strokeWidth=2;fontSize=10;fontColor=#333333;startArrow=oval;startFill=1;" parent="1" source="115" target="121" edge="1">
                    <mxGeometry relative="1" as="geometry"/>
                </mxCell>
                <mxCell id="115" value="&lt;font&gt;&lt;font style=&quot;font-size: 10px;&quot;&gt;Arquitetura&lt;br&gt;&lt;/font&gt;web&lt;br&gt;&lt;/font&gt;" style="whiteSpace=wrap;html=1;shape=mxgraph.basic.document;fillStyle=solid;fillColor=#7F00FF;strokeColor=#FFFFFF;fontColor=#FFFFFF;fontStyle=1" parent="1" vertex="1">
                    <mxGeometry x="900" y="580" width="90" height="30" as="geometry"/>
                </mxCell>
                <mxCell id="117" value="&lt;font&gt;&lt;span style=&quot;font-size: 10px;&quot;&gt;MicrosserviÃ§o&lt;/span&gt;&lt;br&gt;&lt;/font&gt;" style="whiteSpace=wrap;html=1;shape=mxgraph.basic.document;fillStyle=solid;fillColor=#9933FF;strokeColor=#FFFFFF;fontColor=#FFFFFF;fontStyle=1" parent="1" vertex="1">
                    <mxGeometry x="970" y="655" width="90" height="30" as="geometry"/>
                </mxCell>
                <mxCell id="119" value="&lt;font&gt;&lt;span style=&quot;font-size: 10px;&quot;&gt;DistribuÃ­do&lt;/span&gt;&lt;br&gt;&lt;/font&gt;" style="whiteSpace=wrap;html=1;shape=mxgraph.basic.document;fillStyle=solid;fillColor=#9933FF;strokeColor=#FFFFFF;fontColor=#FFFFFF;fontStyle=1" parent="1" vertex="1">
                    <mxGeometry x="1040" y="610" width="90" height="30" as="geometry"/>
                </mxCell>
                <mxCell id="121" value="&lt;font&gt;&lt;span style=&quot;font-size: 10px;&quot;&gt;Ciente/Servidor&lt;/span&gt;&lt;br&gt;&lt;/font&gt;" style="whiteSpace=wrap;html=1;shape=mxgraph.basic.document;fillStyle=solid;fillColor=#9933FF;strokeColor=#FFFFFF;fontColor=#FFFFFF;fontStyle=1" parent="1" vertex="1">
                    <mxGeometry x="860" y="650" width="90" height="30" as="geometry"/>
                </mxCell>
                <mxCell id="125" value="&lt;font&gt;&lt;span style=&quot;font-size: 10px;&quot;&gt;Dispositivos&lt;/span&gt;&lt;br&gt;&lt;/font&gt;" style="whiteSpace=wrap;html=1;shape=mxgraph.basic.document;fillStyle=solid;fillColor=#7F00FF;strokeColor=#FFFFFF;fontColor=#FFFFFF;fontStyle=1" parent="1" vertex="1">
                    <mxGeometry x="800" y="580" width="90" height="30" as="geometry"/>
                </mxCell>
                <mxCell id="127" value="&lt;font style=&quot;font-size: 10px;&quot;&gt;&lt;span style=&quot;&quot;&gt;Arquitetura&lt;br&gt;&lt;/span&gt;Embarcados&lt;br&gt;&lt;/font&gt;" style="whiteSpace=wrap;html=1;shape=mxgraph.basic.document;fillStyle=solid;fillColor=#7F00FF;strokeColor=#FFFFFF;fontColor=#FFFFFF;fontStyle=1" parent="1" vertex="1">
                    <mxGeometry x="720" y="620" width="90" height="30" as="geometry"/>
                </mxCell>
                <mxCell id="129" value="&lt;font&gt;&lt;font style=&quot;font-size: 10px;&quot;&gt;LÃ³gica&lt;/font&gt;&lt;br&gt;&lt;/font&gt;" style="whiteSpace=wrap;html=1;shape=mxgraph.basic.document;fillStyle=solid;fillColor=#009900;strokeColor=#FFFFFF;fontStyle=1;fontColor=#FFFFFF;" parent="1" vertex="1">
                    <mxGeometry x="130" y="545" width="90" height="30" as="geometry"/>
                </mxCell>
                <mxCell id="130" value="&lt;font&gt;&lt;font style=&quot;font-size: 10px;&quot;&gt;LÃ³gica na programaÃ§Ã£o&lt;/font&gt;&lt;br&gt;&lt;/font&gt;" style="whiteSpace=wrap;html=1;shape=mxgraph.basic.document;fillStyle=solid;fillColor=#009900;strokeColor=#FFFFFF;fontStyle=1;fontColor=#FFFFFF;" parent="1" vertex="1">
                    <mxGeometry x="100" y="605" width="90" height="30" as="geometry"/>
                </mxCell>
                <mxCell id="131" value="&lt;font&gt;&lt;font style=&quot;font-size: 10px;&quot;&gt;PseudocÃ³digo&lt;/font&gt;&lt;br&gt;&lt;/font&gt;" style="whiteSpace=wrap;html=1;shape=mxgraph.basic.document;fillStyle=solid;fillColor=#009900;strokeColor=#FFFFFF;fontStyle=1;fontColor=#FFFFFF;" parent="1" vertex="1">
                    <mxGeometry x="100" y="685" width="90" height="30" as="geometry"/>
                </mxCell>
                <mxCell id="132" value="&lt;font&gt;&lt;font style=&quot;font-size: 10px;&quot;&gt;Armazenar dados&lt;/font&gt;&lt;br&gt;&lt;/font&gt;" style="whiteSpace=wrap;html=1;shape=mxgraph.basic.document;fillStyle=solid;fillColor=#006600;strokeColor=#FFFFFF;fontStyle=1;fontColor=#FFFFFF;" parent="1" vertex="1">
                    <mxGeometry x="-50" y="635" width="90" height="30" as="geometry"/>
                </mxCell>
                <mxCell id="133" value="&lt;font&gt;&lt;font style=&quot;font-size: 10px;&quot;&gt;Exibir dados&lt;/font&gt;&lt;br&gt;&lt;/font&gt;" style="whiteSpace=wrap;html=1;shape=mxgraph.basic.document;fillStyle=solid;fillColor=#006600;strokeColor=#FFFFFF;fontStyle=1;fontColor=#FFFFFF;" parent="1" vertex="1">
                    <mxGeometry x="-50" y="685" width="90" height="30" as="geometry"/>
                </mxCell>
                <mxCell id="134" value="&lt;font&gt;&lt;span style=&quot;font-size: 10px;&quot;&gt;VerificaÃ§Ãµes&lt;/span&gt;&lt;br&gt;&lt;/font&gt;" style="whiteSpace=wrap;html=1;shape=mxgraph.basic.document;fillStyle=solid;fillColor=#006600;strokeColor=#FFFFFF;fontStyle=1;fontColor=#FFFFFF;" parent="1" vertex="1">
                    <mxGeometry x="-50" y="735" width="90" height="30" as="geometry"/>
                </mxCell>
                <mxCell id="135" value="&lt;font&gt;&lt;span style=&quot;font-size: 10px;&quot;&gt;RepetiÃ§Ãµes&lt;/span&gt;&lt;br&gt;&lt;/font&gt;" style="whiteSpace=wrap;html=1;shape=mxgraph.basic.document;fillStyle=solid;fillColor=#009900;strokeColor=#FFFFFF;fontStyle=1;fontColor=#FFFFFF;" parent="1" vertex="1">
                    <mxGeometry x="100" y="765" width="90" height="30" as="geometry"/>
                </mxCell>
                <mxCell id="138" style="edgeStyle=orthogonalEdgeStyle;curved=1;html=1;entryX=1;entryY=0.5;entryDx=0;entryDy=0;entryPerimeter=0;strokeColor=#333333;strokeWidth=2;fontSize=10;fontColor=#333333;startArrow=oval;startFill=1;exitX=0;exitY=0.5;exitDx=0;exitDy=0;exitPerimeter=0;" parent="1" source="131" target="132" edge="1">
                    <mxGeometry relative="1" as="geometry">
                        <mxPoint x="125.05882352941171" y="375" as="sourcePoint"/>
                        <mxPoint x="105" y="440" as="targetPoint"/>
                    </mxGeometry>
                </mxCell>
                <mxCell id="140" style="edgeStyle=orthogonalEdgeStyle;curved=1;html=1;entryX=1;entryY=0.5;entryDx=0;entryDy=0;entryPerimeter=0;strokeColor=#333333;strokeWidth=2;fontSize=10;fontColor=#333333;startArrow=oval;startFill=1;exitX=0;exitY=0.5;exitDx=0;exitDy=0;exitPerimeter=0;" parent="1" source="131" target="133" edge="1">
                    <mxGeometry relative="1" as="geometry">
                        <mxPoint x="110" y="709.9999999999998" as="sourcePoint"/>
                        <mxPoint x="50" y="659.9999999999998" as="targetPoint"/>
                    </mxGeometry>
                </mxCell>
                <mxCell id="141" style="edgeStyle=orthogonalEdgeStyle;curved=1;html=1;entryX=1;entryY=0.5;entryDx=0;entryDy=0;entryPerimeter=0;strokeColor=#333333;strokeWidth=2;fontSize=10;fontColor=#333333;startArrow=oval;startFill=1;exitX=0.5;exitY=1;exitDx=0;exitDy=0;exitPerimeter=0;" parent="1" source="131" target="134" edge="1">
                    <mxGeometry relative="1" as="geometry">
                        <mxPoint x="110" y="709.9999999999998" as="sourcePoint"/>
                        <mxPoint x="50" y="709.9999999999998" as="targetPoint"/>
                    </mxGeometry>
                </mxCell>
                <mxCell id="143" style="edgeStyle=orthogonalEdgeStyle;curved=1;html=1;strokeColor=#333333;strokeWidth=2;fontSize=10;fontColor=#333333;startArrow=oval;startFill=1;exitX=0.5;exitY=1;exitDx=0;exitDy=0;exitPerimeter=0;" parent="1" source="131" target="135" edge="1">
                    <mxGeometry relative="1" as="geometry">
                        <mxPoint x="155" y="724.9999999999998" as="sourcePoint"/>
                        <mxPoint x="50" y="759.9999999999998" as="targetPoint"/>
                    </mxGeometry>
                </mxCell>
                <mxCell id="144" style="edgeStyle=orthogonalEdgeStyle;curved=1;html=1;entryX=1;entryY=0.5;entryDx=0;entryDy=0;entryPerimeter=0;strokeColor=#333333;strokeWidth=2;fontSize=10;fontColor=#333333;startArrow=oval;startFill=1;" parent="1" source="11" target="131" edge="1">
                    <mxGeometry relative="1" as="geometry">
                        <mxPoint x="155" y="724.9999999999998" as="sourcePoint"/>
                        <mxPoint x="50" y="759.9999999999998" as="targetPoint"/>
                    </mxGeometry>
                </mxCell>
                <mxCell id="145" style="edgeStyle=orthogonalEdgeStyle;curved=1;html=1;entryX=1;entryY=0.5;entryDx=0;entryDy=0;entryPerimeter=0;strokeColor=#333333;strokeWidth=2;fontSize=10;fontColor=#333333;startArrow=oval;startFill=1;exitX=0;exitY=0.5;exitDx=0;exitDy=0;exitPerimeter=0;" parent="1" source="11" target="130" edge="1">
                    <mxGeometry relative="1" as="geometry">
                        <mxPoint x="280" y="635" as="sourcePoint"/>
                        <mxPoint x="200" y="709.9999999999998" as="targetPoint"/>
                    </mxGeometry>
                </mxCell>
                <mxCell id="146" style="edgeStyle=orthogonalEdgeStyle;curved=1;html=1;entryX=1;entryY=0.5;entryDx=0;entryDy=0;entryPerimeter=0;strokeColor=#333333;strokeWidth=2;fontSize=10;fontColor=#333333;startArrow=oval;startFill=1;exitX=0;exitY=0.5;exitDx=0;exitDy=0;exitPerimeter=0;" parent="1" source="11" target="129" edge="1">
                    <mxGeometry relative="1" as="geometry">
                        <mxPoint x="290" y="644.9999999999998" as="sourcePoint"/>
                        <mxPoint x="200" y="629.9999999999998" as="targetPoint"/>
                    </mxGeometry>
                </mxCell>
                <mxCell id="147" value="&lt;font&gt;&lt;span style=&quot;font-size: 10px;&quot;&gt;Teclado&lt;/span&gt;&lt;br&gt;&lt;/font&gt;" style="whiteSpace=wrap;html=1;shape=mxgraph.basic.document;fillStyle=solid;fillColor=#FFFFFF;strokeColor=#FFFFFF;fontStyle=1;fontColor=#FFFFFF;" parent="1" vertex="1">
                    <mxGeometry x="-360" y="385" width="90" height="30" as="geometry"/>
                </mxCell>
                <mxCell id="148" value="&lt;font&gt;&lt;span style=&quot;font-size: 10px;&quot;&gt;Teclado&lt;/span&gt;&lt;br&gt;&lt;/font&gt;" style="whiteSpace=wrap;html=1;shape=mxgraph.basic.document;fillStyle=solid;fillColor=#FFFFFF;strokeColor=#FFFFFF;fontStyle=1;fontColor=#FFFFFF;" parent="1" vertex="1">
                    <mxGeometry x="1240" y="370" width="90" height="30" as="geometry"/>
                </mxCell>
                <mxCell id="149" value="&lt;font&gt;&lt;span style=&quot;font-size: 10px;&quot;&gt;Teclado&lt;/span&gt;&lt;br&gt;&lt;/font&gt;" style="whiteSpace=wrap;html=1;shape=mxgraph.basic.document;fillStyle=solid;fillColor=#FFFFFF;strokeColor=#FFFFFF;fontStyle=1;fontColor=#FFFFFF;" parent="1" vertex="1">
                    <mxGeometry x="390" width="90" height="30" as="geometry"/>
                </mxCell>
                <mxCell id="150" value="&lt;font&gt;&lt;span style=&quot;font-size: 10px;&quot;&gt;Teclado&lt;/span&gt;&lt;br&gt;&lt;/font&gt;" style="whiteSpace=wrap;html=1;shape=mxgraph.basic.document;fillStyle=solid;fillColor=#FFFFFF;strokeColor=#FFFFFF;fontStyle=1;fontColor=#FFFFFF;" parent="1" vertex="1">
                    <mxGeometry x="415" y="1520" width="90" height="30" as="geometry"/>
                </mxCell>
                <mxCell id="151" value="&lt;font style=&quot;font-size: 10px;&quot;&gt;EstilizaÃ§Ã£o&lt;br&gt;&lt;/font&gt;" style="whiteSpace=wrap;html=1;shape=mxgraph.basic.document;fillStyle=solid;fillColor=#fa6800;strokeColor=#C73500;fontColor=#FFFFFF;fontStyle=1" parent="1" vertex="1">
                    <mxGeometry x="1049.5" y="765" width="90" height="30" as="geometry"/>
                </mxCell>
                <mxCell id="152" value="&lt;font style=&quot;font-size: 10px;&quot;&gt;MarcaÃ§Ã£o&lt;br&gt;&lt;/font&gt;" style="whiteSpace=wrap;html=1;shape=mxgraph.basic.document;fillStyle=solid;fillColor=#fa6800;strokeColor=#C73500;fontColor=#FFFFFF;fontStyle=1" parent="1" vertex="1">
                    <mxGeometry x="1120" y="820" width="90" height="30" as="geometry"/>
                </mxCell>
                <mxCell id="153" value="&lt;font style=&quot;font-size: 10px;&quot;&gt;ConfiguraÃ§Ã£o&lt;br&gt;&lt;/font&gt;" style="whiteSpace=wrap;html=1;shape=mxgraph.basic.document;fillStyle=solid;fillColor=#fa6800;strokeColor=#C73500;fontColor=#FFFFFF;fontStyle=1" parent="1" vertex="1">
                    <mxGeometry x="1120" y="920" width="90" height="30" as="geometry"/>
                </mxCell>
                <mxCell id="270" style="edgeStyle=none;html=1;entryX=0;entryY=0.5;entryDx=0;entryDy=0;entryPerimeter=0;strokeWidth=3;strokeColor=#333333;" edge="1" parent="1" source="154" target="165">
                    <mxGeometry relative="1" as="geometry"/>
                </mxCell>
                <mxCell id="154" value="&lt;font style=&quot;font-size: 10px;&quot;&gt;TransferÃªncia de dados&lt;br&gt;&lt;/font&gt;" style="whiteSpace=wrap;html=1;shape=mxgraph.basic.document;fillStyle=solid;fillColor=#fa6800;strokeColor=#C73500;fontColor=#FFFFFF;fontStyle=1" parent="1" vertex="1">
                    <mxGeometry x="1120" y="990" width="90" height="30" as="geometry"/>
                </mxCell>
                <mxCell id="155" value="&lt;font style=&quot;font-size: 10px;&quot;&gt;ProgramaÃ§Ã£o&lt;br&gt;&lt;/font&gt;" style="whiteSpace=wrap;html=1;shape=mxgraph.basic.document;fillStyle=solid;fillColor=#fa6800;strokeColor=#C73500;fontColor=#FFFFFF;fontStyle=1" parent="1" vertex="1">
                    <mxGeometry x="1170" y="1100" width="90" height="30" as="geometry"/>
                </mxCell>
                <mxCell id="156" value="&lt;font style=&quot;font-size: 10px;&quot;&gt;Consultas&lt;br&gt;&lt;/font&gt;" style="whiteSpace=wrap;html=1;shape=mxgraph.basic.document;fillStyle=solid;fillColor=#fa6800;strokeColor=#C73500;fontColor=#FFFFFF;fontStyle=1" parent="1" vertex="1">
                    <mxGeometry x="890" y="940" width="90" height="30" as="geometry"/>
                </mxCell>
                <mxCell id="158" value="&lt;font style=&quot;font-size: 10px;&quot;&gt;Scripts&lt;br&gt;&lt;/font&gt;" style="whiteSpace=wrap;html=1;shape=mxgraph.basic.document;fillStyle=solid;fillColor=#fa6800;strokeColor=#C73500;fontColor=#FFFFFF;fontStyle=1" parent="1" vertex="1">
                    <mxGeometry x="780" y="940" width="90" height="30" as="geometry"/>
                </mxCell>
                <mxCell id="163" value="&lt;font style=&quot;font-size: 10px;&quot;&gt;CSS&lt;br&gt;&lt;/font&gt;" style="whiteSpace=wrap;html=1;shape=mxgraph.basic.document;fillStyle=solid;fillColor=#BA4D00;strokeColor=#C73500;fontColor=#FFFFFF;fontStyle=1" parent="1" vertex="1">
                    <mxGeometry x="1120" y="690" width="90" height="30" as="geometry"/>
                </mxCell>
                <mxCell id="164" value="&lt;font style=&quot;font-size: 10px;&quot;&gt;SASS&lt;br&gt;&lt;/font&gt;" style="whiteSpace=wrap;html=1;shape=mxgraph.basic.document;fillStyle=solid;fillColor=#BA4D00;strokeColor=#C73500;fontColor=#FFFFFF;fontStyle=1" parent="1" vertex="1">
                    <mxGeometry x="1185" y="735" width="90" height="30" as="geometry"/>
                </mxCell>
                <mxCell id="165" value="&lt;font style=&quot;font-size: 10px;&quot;&gt;XML&lt;br&gt;&lt;/font&gt;" style="whiteSpace=wrap;html=1;shape=mxgraph.basic.document;fillStyle=solid;fillColor=#BA4D00;strokeColor=#C73500;fontColor=#FFFFFF;fontStyle=1" parent="1" vertex="1">
                    <mxGeometry x="1320" y="995" width="90" height="30" as="geometry"/>
                </mxCell>
                <mxCell id="166" value="&lt;font style=&quot;font-size: 10px;&quot;&gt;HTML&lt;br&gt;&lt;/font&gt;" style="whiteSpace=wrap;html=1;shape=mxgraph.basic.document;fillStyle=solid;fillColor=#BA4D00;strokeColor=#C73500;fontColor=#FFFFFF;fontStyle=1" parent="1" vertex="1">
                    <mxGeometry x="1330" y="820" width="90" height="30" as="geometry"/>
                </mxCell>
                <mxCell id="167" value="&lt;font style=&quot;font-size: 10px;&quot;&gt;XAML&lt;br&gt;&lt;/font&gt;" style="whiteSpace=wrap;html=1;shape=mxgraph.basic.document;fillStyle=solid;fillColor=#BA4D00;strokeColor=#C73500;fontColor=#FFFFFF;fontStyle=1" parent="1" vertex="1">
                    <mxGeometry x="1300" y="855" width="90" height="30" as="geometry"/>
                </mxCell>
                <mxCell id="169" style="edgeStyle=orthogonalEdgeStyle;curved=1;html=1;entryX=0;entryY=0.5;entryDx=0;entryDy=0;entryPerimeter=0;strokeColor=#333333;startArrow=oval;startFill=1;strokeWidth=3;exitX=1;exitY=0.5;exitDx=0;exitDy=0;exitPerimeter=0;" parent="1" source="12" target="151" edge="1">
                    <mxGeometry relative="1" as="geometry">
                        <mxPoint x="572" y="645" as="sourcePoint"/>
                        <mxPoint x="896.75" y="850" as="targetPoint"/>
                    </mxGeometry>
                </mxCell>
                <mxCell id="170" style="edgeStyle=orthogonalEdgeStyle;curved=1;html=1;entryX=0;entryY=0.5;entryDx=0;entryDy=0;entryPerimeter=0;strokeColor=#333333;startArrow=oval;startFill=1;strokeWidth=3;" parent="1" source="12" target="152" edge="1">
                    <mxGeometry relative="1" as="geometry">
                        <mxPoint x="973" y="850" as="sourcePoint"/>
                        <mxPoint x="1029.5" y="790" as="targetPoint"/>
                    </mxGeometry>
                </mxCell>
                <mxCell id="171" style="edgeStyle=orthogonalEdgeStyle;curved=1;html=1;entryX=0;entryY=0.5;entryDx=0;entryDy=0;entryPerimeter=0;strokeColor=#333333;startArrow=oval;startFill=1;strokeWidth=3;exitX=1;exitY=0.5;exitDx=0;exitDy=0;exitPerimeter=0;" parent="1" source="12" target="153" edge="1">
                    <mxGeometry relative="1" as="geometry">
                        <mxPoint x="973" y="880" as="sourcePoint"/>
                        <mxPoint x="1059.5" y="835" as="targetPoint"/>
                    </mxGeometry>
                </mxCell>
                <mxCell id="172" style="edgeStyle=orthogonalEdgeStyle;curved=1;html=1;entryX=0;entryY=0.5;entryDx=0;entryDy=0;entryPerimeter=0;strokeColor=#333333;startArrow=oval;startFill=1;strokeWidth=3;exitX=1;exitY=0.5;exitDx=0;exitDy=0;exitPerimeter=0;" parent="1" source="12" target="154" edge="1">
                    <mxGeometry relative="1" as="geometry">
                        <mxPoint x="983" y="890" as="sourcePoint"/>
                        <mxPoint x="1069.5" y="845" as="targetPoint"/>
                    </mxGeometry>
                </mxCell>
                <mxCell id="173" style="edgeStyle=orthogonalEdgeStyle;curved=1;html=1;entryX=0;entryY=0.5;entryDx=0;entryDy=0;entryPerimeter=0;strokeColor=#333333;startArrow=oval;startFill=1;strokeWidth=3;exitX=0.5;exitY=0;exitDx=0;exitDy=0;exitPerimeter=0;" parent="1" source="151" target="163" edge="1">
                    <mxGeometry relative="1" as="geometry">
                        <mxPoint x="973" y="850" as="sourcePoint"/>
                        <mxPoint x="1059.5" y="790" as="targetPoint"/>
                    </mxGeometry>
                </mxCell>
                <mxCell id="174" style="edgeStyle=orthogonalEdgeStyle;curved=1;html=1;entryX=0;entryY=0.5;entryDx=0;entryDy=0;entryPerimeter=0;strokeColor=#333333;startArrow=oval;startFill=1;strokeWidth=3;exitX=0.5;exitY=0;exitDx=0;exitDy=0;exitPerimeter=0;" parent="1" source="151" target="164" edge="1">
                    <mxGeometry relative="1" as="geometry">
                        <mxPoint x="1149.5" y="790" as="sourcePoint"/>
                        <mxPoint x="1199.5" y="740" as="targetPoint"/>
                        <Array as="points">
                            <mxPoint x="1094" y="750"/>
                        </Array>
                    </mxGeometry>
                </mxCell>
                <mxCell id="177" style="edgeStyle=orthogonalEdgeStyle;curved=1;html=1;entryX=0;entryY=0.5;entryDx=0;entryDy=0;entryPerimeter=0;strokeColor=#333333;startArrow=oval;startFill=1;strokeWidth=3;exitX=1;exitY=0.5;exitDx=0;exitDy=0;exitPerimeter=0;" parent="1" source="152" target="166" edge="1">
                    <mxGeometry relative="1" as="geometry">
                        <mxPoint x="1043.5" y="850" as="sourcePoint"/>
                        <mxPoint x="1130" y="850" as="targetPoint"/>
                    </mxGeometry>
                </mxCell>
                <mxCell id="178" style="edgeStyle=orthogonalEdgeStyle;curved=1;html=1;entryX=0;entryY=0.5;entryDx=0;entryDy=0;entryPerimeter=0;strokeColor=#333333;startArrow=oval;startFill=1;strokeWidth=3;exitX=1;exitY=0.5;exitDx=0;exitDy=0;exitPerimeter=0;" parent="1" source="152" target="167" edge="1">
                    <mxGeometry relative="1" as="geometry">
                        <mxPoint x="1220" y="850" as="sourcePoint"/>
                        <mxPoint x="1270" y="850" as="targetPoint"/>
                    </mxGeometry>
                </mxCell>
                <mxCell id="181" value="&lt;font style=&quot;font-size: 10px;&quot;&gt;JSON&lt;br&gt;&lt;/font&gt;" style="whiteSpace=wrap;html=1;shape=mxgraph.basic.document;fillStyle=solid;fillColor=#BA4D00;strokeColor=#C73500;fontColor=#FFFFFF;fontStyle=1" parent="1" vertex="1">
                    <mxGeometry x="1260" y="940" width="90" height="30" as="geometry"/>
                </mxCell>
                <mxCell id="182" value="&lt;font style=&quot;font-size: 10px;&quot;&gt;YAML&lt;br&gt;&lt;/font&gt;" style="whiteSpace=wrap;html=1;shape=mxgraph.basic.document;fillStyle=solid;fillColor=#BA4D00;strokeColor=#C73500;fontColor=#FFFFFF;fontStyle=1" parent="1" vertex="1">
                    <mxGeometry x="1260" y="900" width="90" height="30" as="geometry"/>
                </mxCell>
                <mxCell id="183" style="edgeStyle=orthogonalEdgeStyle;curved=1;html=1;entryX=0;entryY=0.5;entryDx=0;entryDy=0;entryPerimeter=0;strokeColor=#333333;startArrow=oval;startFill=1;strokeWidth=3;exitX=1;exitY=0.5;exitDx=0;exitDy=0;exitPerimeter=0;" parent="1" source="153" target="182" edge="1">
                    <mxGeometry relative="1" as="geometry">
                        <mxPoint x="1220" y="845" as="sourcePoint"/>
                        <mxPoint x="1340" y="845" as="targetPoint"/>
                    </mxGeometry>
                </mxCell>
                <mxCell id="184" style="edgeStyle=orthogonalEdgeStyle;curved=1;html=1;entryX=0;entryY=0.5;entryDx=0;entryDy=0;entryPerimeter=0;strokeColor=#333333;startArrow=oval;startFill=1;strokeWidth=3;exitX=1;exitY=0.5;exitDx=0;exitDy=0;exitPerimeter=0;" parent="1" source="153" target="181" edge="1">
                    <mxGeometry relative="1" as="geometry">
                        <mxPoint x="1220" y="945" as="sourcePoint"/>
                        <mxPoint x="1270" y="925" as="targetPoint"/>
                    </mxGeometry>
                </mxCell>
                <mxCell id="185" style="edgeStyle=orthogonalEdgeStyle;curved=1;html=1;entryX=0.5;entryY=1;entryDx=0;entryDy=0;entryPerimeter=0;strokeColor=#333333;startArrow=oval;startFill=1;strokeWidth=3;exitX=1;exitY=0.5;exitDx=0;exitDy=0;exitPerimeter=0;" parent="1" source="154" target="181" edge="1">
                    <mxGeometry relative="1" as="geometry">
                        <mxPoint x="1220" y="945" as="sourcePoint"/>
                        <mxPoint x="1270" y="965" as="targetPoint"/>
                    </mxGeometry>
                </mxCell>
                <mxCell id="187" style="edgeStyle=orthogonalEdgeStyle;curved=1;html=1;entryX=0;entryY=0.5;entryDx=0;entryDy=0;entryPerimeter=0;strokeColor=#333333;startArrow=oval;startFill=1;strokeWidth=3;exitX=1;exitY=0.5;exitDx=0;exitDy=0;exitPerimeter=0;" parent="1" source="12" target="155" edge="1">
                    <mxGeometry relative="1" as="geometry">
                        <mxPoint x="973" y="879.9999999999998" as="sourcePoint"/>
                        <mxPoint x="1130" y="1014.9999999999998" as="targetPoint"/>
                        <Array as="points">
                            <mxPoint x="1030" y="870"/>
                            <mxPoint x="1030" y="1115"/>
                        </Array>
                    </mxGeometry>
                </mxCell>
                <mxCell id="189" style="edgeStyle=orthogonalEdgeStyle;curved=1;html=1;entryX=0.5;entryY=0;entryDx=0;entryDy=0;entryPerimeter=0;strokeColor=#333333;startArrow=oval;startFill=1;strokeWidth=3;exitX=0.5;exitY=1;exitDx=0;exitDy=0;exitPerimeter=0;" parent="1" source="12" target="156" edge="1">
                    <mxGeometry relative="1" as="geometry">
                        <mxPoint x="973" y="879.9999999999998" as="sourcePoint"/>
                        <mxPoint x="1130" y="1014.9999999999998" as="targetPoint"/>
                    </mxGeometry>
                </mxCell>
                <mxCell id="190" style="edgeStyle=orthogonalEdgeStyle;curved=1;html=1;strokeColor=#333333;startArrow=oval;startFill=1;strokeWidth=3;exitX=0.5;exitY=1;exitDx=0;exitDy=0;exitPerimeter=0;" parent="1" source="12" target="158" edge="1">
                    <mxGeometry relative="1" as="geometry">
                        <mxPoint x="896.75" y="909.9999999999998" as="sourcePoint"/>
                        <mxPoint x="965" y="949.9999999999998" as="targetPoint"/>
                    </mxGeometry>
                </mxCell>
                <mxCell id="191" value="&lt;font style=&quot;font-size: 10px;&quot;&gt;SQL&lt;br&gt;&lt;/font&gt;" style="whiteSpace=wrap;html=1;shape=mxgraph.basic.document;fillStyle=solid;fillColor=#BA4D00;strokeColor=#C73500;fontColor=#FFFFFF;fontStyle=1" parent="1" vertex="1">
                    <mxGeometry x="890" y="1000" width="90" height="30" as="geometry"/>
                </mxCell>
                <mxCell id="192" style="edgeStyle=orthogonalEdgeStyle;curved=1;html=1;entryX=0.5;entryY=0;entryDx=0;entryDy=0;entryPerimeter=0;strokeColor=#333333;startArrow=oval;startFill=1;strokeWidth=3;exitX=0.5;exitY=1;exitDx=0;exitDy=0;exitPerimeter=0;" parent="1" source="156" target="191" edge="1">
                    <mxGeometry relative="1" as="geometry">
                        <mxPoint x="896.75" y="909.9999999999998" as="sourcePoint"/>
                        <mxPoint x="945" y="949.9999999999998" as="targetPoint"/>
                    </mxGeometry>
                </mxCell>
                <mxCell id="193" value="&lt;font style=&quot;font-size: 10px;&quot;&gt;Bash&lt;br&gt;&lt;/font&gt;" style="whiteSpace=wrap;html=1;shape=mxgraph.basic.document;fillStyle=solid;fillColor=#BA4D00;strokeColor=#C73500;fontColor=#FFFFFF;fontStyle=1" parent="1" vertex="1">
                    <mxGeometry x="780" y="990" width="90" height="30" as="geometry"/>
                </mxCell>
                <mxCell id="194" value="&lt;font style=&quot;font-size: 10px;&quot;&gt;PowerShell&lt;br&gt;&lt;/font&gt;" style="whiteSpace=wrap;html=1;shape=mxgraph.basic.document;fillStyle=solid;fillColor=#BA4D00;strokeColor=#C73500;fontColor=#FFFFFF;fontStyle=1" parent="1" vertex="1">
                    <mxGeometry x="780" y="1040" width="90" height="30" as="geometry"/>
                </mxCell>
                <mxCell id="195" style="edgeStyle=orthogonalEdgeStyle;curved=1;html=1;strokeColor=#333333;startArrow=oval;startFill=1;strokeWidth=3;exitX=0;exitY=0.5;exitDx=0;exitDy=0;exitPerimeter=0;entryX=0;entryY=0.5;entryDx=0;entryDy=0;entryPerimeter=0;" parent="1" source="158" target="193" edge="1">
                    <mxGeometry relative="1" as="geometry">
                        <mxPoint x="896.75" y="909.9999999999998" as="sourcePoint"/>
                        <mxPoint x="835.0588235294117" y="949.9999999999998" as="targetPoint"/>
                        <Array as="points">
                            <mxPoint x="750" y="955"/>
                            <mxPoint x="750" y="1005"/>
                        </Array>
                    </mxGeometry>
                </mxCell>
                <mxCell id="196" style="edgeStyle=orthogonalEdgeStyle;curved=1;html=1;strokeColor=#333333;startArrow=oval;startFill=1;strokeWidth=3;entryX=0;entryY=0.5;entryDx=0;entryDy=0;entryPerimeter=0;exitX=0;exitY=0.5;exitDx=0;exitDy=0;exitPerimeter=0;" parent="1" source="158" target="194" edge="1">
                    <mxGeometry relative="1" as="geometry">
                        <mxPoint x="770" y="950" as="sourcePoint"/>
                        <mxPoint x="790" y="1014.9999999999998" as="targetPoint"/>
                        <Array as="points">
                            <mxPoint x="740" y="955"/>
                            <mxPoint x="740" y="1055"/>
                        </Array>
                    </mxGeometry>
                </mxCell>
                <mxCell id="197" value="&lt;font style=&quot;font-size: 10px;&quot;&gt;JavaScript&lt;br&gt;&lt;/font&gt;" style="whiteSpace=wrap;html=1;shape=mxgraph.basic.document;fillStyle=solid;fillColor=#BA4D00;strokeColor=#C73500;fontColor=#FFFFFF;fontStyle=1" parent="1" vertex="1">
                    <mxGeometry x="1310" y="1050" width="90" height="30" as="geometry"/>
                </mxCell>
                <mxCell id="198" value="&lt;font style=&quot;font-size: 10px;&quot;&gt;Python&lt;br&gt;&lt;/font&gt;" style="whiteSpace=wrap;html=1;shape=mxgraph.basic.document;fillStyle=solid;fillColor=#BA4D00;strokeColor=#C73500;fontColor=#FFFFFF;fontStyle=1" parent="1" vertex="1">
                    <mxGeometry x="1370" y="1095" width="90" height="30" as="geometry"/>
                </mxCell>
                <mxCell id="199" value="&lt;font style=&quot;font-size: 10px;&quot;&gt;Java&lt;br&gt;&lt;/font&gt;" style="whiteSpace=wrap;html=1;shape=mxgraph.basic.document;fillStyle=solid;fillColor=#BA4D00;strokeColor=#C73500;fontColor=#FFFFFF;fontStyle=1" parent="1" vertex="1">
                    <mxGeometry x="1370" y="1140" width="90" height="30" as="geometry"/>
                </mxCell>
                <mxCell id="200" value="&lt;font style=&quot;font-size: 10px;&quot;&gt;C++&lt;br&gt;&lt;/font&gt;" style="whiteSpace=wrap;html=1;shape=mxgraph.basic.document;fillStyle=solid;fillColor=#BA4D00;strokeColor=#C73500;fontColor=#FFFFFF;fontStyle=1" parent="1" vertex="1">
                    <mxGeometry x="1310" y="1180" width="90" height="30" as="geometry"/>
                </mxCell>
                <mxCell id="202" style="edgeStyle=orthogonalEdgeStyle;curved=1;html=1;entryX=0;entryY=0.5;entryDx=0;entryDy=0;entryPerimeter=0;strokeColor=#333333;startArrow=oval;startFill=1;strokeWidth=3;exitX=1;exitY=0.5;exitDx=0;exitDy=0;exitPerimeter=0;" parent="1" source="155" target="197" edge="1">
                    <mxGeometry relative="1" as="geometry">
                        <mxPoint x="1220" y="1055" as="sourcePoint"/>
                        <mxPoint x="1315" y="1020" as="targetPoint"/>
                    </mxGeometry>
                </mxCell>
                <mxCell id="203" style="edgeStyle=orthogonalEdgeStyle;curved=1;html=1;entryX=0;entryY=0.5;entryDx=0;entryDy=0;entryPerimeter=0;strokeColor=#333333;startArrow=oval;startFill=1;strokeWidth=3;exitX=1;exitY=0.5;exitDx=0;exitDy=0;exitPerimeter=0;" parent="1" source="155" target="200" edge="1">
                    <mxGeometry relative="1" as="geometry">
                        <mxPoint x="1270" y="1125" as="sourcePoint"/>
                        <mxPoint x="1320" y="1075" as="targetPoint"/>
                    </mxGeometry>
                </mxCell>
                <mxCell id="204" style="edgeStyle=orthogonalEdgeStyle;curved=1;html=1;entryX=0;entryY=0.5;entryDx=0;entryDy=0;entryPerimeter=0;strokeColor=#333333;startArrow=oval;startFill=1;strokeWidth=3;exitX=1;exitY=0.5;exitDx=0;exitDy=0;exitPerimeter=0;" parent="1" source="155" target="198" edge="1">
                    <mxGeometry relative="1" as="geometry">
                        <mxPoint x="1270" y="1125" as="sourcePoint"/>
                        <mxPoint x="1320" y="1205" as="targetPoint"/>
                    </mxGeometry>
                </mxCell>
                <mxCell id="205" style="edgeStyle=orthogonalEdgeStyle;curved=1;html=1;entryX=0;entryY=0.5;entryDx=0;entryDy=0;entryPerimeter=0;strokeColor=#333333;startArrow=oval;startFill=1;strokeWidth=3;exitX=1;exitY=0.5;exitDx=0;exitDy=0;exitPerimeter=0;" parent="1" source="155" target="199" edge="1">
                    <mxGeometry relative="1" as="geometry">
                        <mxPoint x="1270" y="1125" as="sourcePoint"/>
                        <mxPoint x="1410" y="1115" as="targetPoint"/>
                    </mxGeometry>
                </mxCell>
                <mxCell id="206" value="&lt;font&gt;&lt;span style=&quot;font-size: 10px;&quot;&gt;Tipagem&lt;/span&gt;&lt;br&gt;&lt;/font&gt;" style="whiteSpace=wrap;html=1;shape=mxgraph.basic.document;fillStyle=solid;fillColor=#e51400;strokeColor=#B20000;fontStyle=1;fontColor=#ffffff;" parent="1" vertex="1">
                    <mxGeometry x="52.5" y="895" width="90" height="30" as="geometry"/>
                </mxCell>
                <mxCell id="207" value="&lt;font&gt;&lt;span style=&quot;font-size: 10px;&quot;&gt;Paradigmas&lt;/span&gt;&lt;br&gt;&lt;/font&gt;" style="whiteSpace=wrap;html=1;shape=mxgraph.basic.document;fillStyle=solid;fillColor=#e51400;strokeColor=#B20000;fontStyle=1;fontColor=#ffffff;" parent="1" vertex="1">
                    <mxGeometry x="-37.5" y="995" width="90" height="30" as="geometry"/>
                </mxCell>
                <mxCell id="208" value="&lt;font&gt;&lt;span style=&quot;font-size: 10px;&quot;&gt;GeraÃ§Ã£o de cÃ³digo final&lt;/span&gt;&lt;br&gt;&lt;/font&gt;" style="whiteSpace=wrap;html=1;shape=mxgraph.basic.document;fillStyle=solid;fillColor=#e51400;strokeColor=#B20000;fontStyle=1;fontColor=#ffffff;" parent="1" vertex="1">
                    <mxGeometry x="-7.5" y="1115" width="90" height="30" as="geometry"/>
                </mxCell>
                <mxCell id="209" value="&lt;font&gt;&lt;span style=&quot;font-size: 10px;&quot;&gt;Gerenciamento de memÃ³ria&lt;/span&gt;&lt;br&gt;&lt;/font&gt;" style="whiteSpace=wrap;html=1;shape=mxgraph.basic.document;fillStyle=solid;fillColor=#e51400;strokeColor=#B20000;fontStyle=1;fontColor=#ffffff;" parent="1" vertex="1">
                    <mxGeometry x="52.5" y="1215" width="90" height="30" as="geometry"/>
                </mxCell>
                <mxCell id="213" value="&lt;font&gt;&lt;span style=&quot;font-size: 10px;&quot;&gt;Fracamento&lt;/span&gt;&lt;br&gt;&lt;/font&gt;" style="whiteSpace=wrap;html=1;shape=mxgraph.basic.document;fillStyle=solid;fillColor=#990D00;strokeColor=#B20000;fontStyle=1;fontColor=#ffffff;" parent="1" vertex="1">
                    <mxGeometry x="-97.5" y="865" width="90" height="30" as="geometry"/>
                </mxCell>
                <mxCell id="214" value="&lt;font&gt;&lt;span style=&quot;font-size: 10px;&quot;&gt;Fortemente&lt;/span&gt;&lt;br&gt;&lt;/font&gt;" style="whiteSpace=wrap;html=1;shape=mxgraph.basic.document;fillStyle=solid;fillColor=#990D00;strokeColor=#B20000;fontStyle=1;fontColor=#ffffff;" parent="1" vertex="1">
                    <mxGeometry x="-97.5" y="915" width="90" height="30" as="geometry"/>
                </mxCell>
                <mxCell id="215" value="&lt;font&gt;&lt;span style=&quot;font-size: 10px;&quot;&gt;Imperativo&lt;/span&gt;&lt;br&gt;&lt;/font&gt;" style="whiteSpace=wrap;html=1;shape=mxgraph.basic.document;fillStyle=solid;fillColor=#990D00;strokeColor=#B20000;fontStyle=1;fontColor=#ffffff;" parent="1" vertex="1">
                    <mxGeometry x="-227.5" y="955" width="90" height="30" as="geometry"/>
                </mxCell>
                <mxCell id="216" value="&lt;font&gt;&lt;span style=&quot;font-size: 10px;&quot;&gt;Modular&lt;/span&gt;&lt;br&gt;&lt;/font&gt;" style="whiteSpace=wrap;html=1;shape=mxgraph.basic.document;fillStyle=solid;fillColor=#990D00;strokeColor=#B20000;fontStyle=1;fontColor=#ffffff;" parent="1" vertex="1">
                    <mxGeometry x="-227.5" y="995" width="90" height="30" as="geometry"/>
                </mxCell>
                <mxCell id="217" value="&lt;font&gt;&lt;span style=&quot;font-size: 10px;&quot;&gt;Orientado a objetos&lt;/span&gt;&lt;br&gt;&lt;/font&gt;" style="whiteSpace=wrap;html=1;shape=mxgraph.basic.document;fillStyle=solid;fillColor=#990D00;strokeColor=#B20000;fontStyle=1;fontColor=#ffffff;" parent="1" vertex="1">
                    <mxGeometry x="-227.5" y="1035" width="90" height="30" as="geometry"/>
                </mxCell>
                <mxCell id="218" value="&lt;font&gt;&lt;span style=&quot;font-size: 10px;&quot;&gt;Compilado&lt;/span&gt;&lt;br&gt;&lt;/font&gt;" style="whiteSpace=wrap;html=1;shape=mxgraph.basic.document;fillStyle=solid;fillColor=#990D00;strokeColor=#B20000;fontStyle=1;fontColor=#ffffff;" parent="1" vertex="1">
                    <mxGeometry x="-157.5" y="1085" width="90" height="30" as="geometry"/>
                </mxCell>
                <mxCell id="219" value="&lt;font&gt;&lt;span style=&quot;font-size: 10px;&quot;&gt;Interpretado&lt;/span&gt;&lt;br&gt;&lt;/font&gt;" style="whiteSpace=wrap;html=1;shape=mxgraph.basic.document;fillStyle=solid;fillColor=#990D00;strokeColor=#B20000;fontStyle=1;fontColor=#ffffff;" parent="1" vertex="1">
                    <mxGeometry x="-157.5" y="1135" width="90" height="30" as="geometry"/>
                </mxCell>
                <mxCell id="220" value="&lt;font&gt;&lt;span style=&quot;font-size: 10px;&quot;&gt;Manual&lt;/span&gt;&lt;br&gt;&lt;/font&gt;" style="whiteSpace=wrap;html=1;shape=mxgraph.basic.document;fillStyle=solid;fillColor=#990D00;strokeColor=#B20000;fontStyle=1;fontColor=#ffffff;" parent="1" vertex="1">
                    <mxGeometry x="-97.5" y="1185" width="90" height="30" as="geometry"/>
                </mxCell>
                <mxCell id="221" value="&lt;font&gt;&lt;span style=&quot;font-size: 10px;&quot;&gt;AutomÃ¡tico&lt;/span&gt;&lt;br&gt;&lt;/font&gt;" style="whiteSpace=wrap;html=1;shape=mxgraph.basic.document;fillStyle=solid;fillColor=#990D00;strokeColor=#B20000;fontStyle=1;fontColor=#ffffff;" parent="1" vertex="1">
                    <mxGeometry x="-97.5" y="1245" width="90" height="30" as="geometry"/>
                </mxCell>
                <mxCell id="222" style="edgeStyle=orthogonalEdgeStyle;curved=1;html=1;exitX=0;exitY=0.5;exitDx=0;exitDy=0;exitPerimeter=0;entryX=1;entryY=0.5;entryDx=0;entryDy=0;entryPerimeter=0;strokeColor=#333333;startArrow=oval;startFill=1;strokeWidth=3;" parent="1" source="13" target="206" edge="1">
                    <mxGeometry relative="1" as="geometry">
                        <mxPoint x="365" y="1060" as="sourcePoint"/>
                        <mxPoint x="916.25" y="1355" as="targetPoint"/>
                    </mxGeometry>
                </mxCell>
                <mxCell id="224" style="edgeStyle=orthogonalEdgeStyle;curved=1;html=1;exitX=0;exitY=0.5;exitDx=0;exitDy=0;exitPerimeter=0;entryX=1;entryY=0.5;entryDx=0;entryDy=0;entryPerimeter=0;strokeColor=#333333;startArrow=oval;startFill=1;strokeWidth=3;" parent="1" source="206" target="213" edge="1">
                    <mxGeometry relative="1" as="geometry">
                        <mxPoint x="232.5" y="1080" as="sourcePoint"/>
                        <mxPoint x="152.5" y="920.0000000000002" as="targetPoint"/>
                    </mxGeometry>
                </mxCell>
                <mxCell id="225" style="edgeStyle=orthogonalEdgeStyle;curved=1;html=1;exitX=0;exitY=0.5;exitDx=0;exitDy=0;exitPerimeter=0;entryX=1;entryY=0.5;entryDx=0;entryDy=0;entryPerimeter=0;strokeColor=#333333;startArrow=oval;startFill=1;strokeWidth=3;" parent="1" source="206" target="214" edge="1">
                    <mxGeometry relative="1" as="geometry">
                        <mxPoint x="62.5" y="920.0000000000002" as="sourcePoint"/>
                        <mxPoint x="-7.5" y="870.0000000000002" as="targetPoint"/>
                    </mxGeometry>
                </mxCell>
                <mxCell id="227" style="edgeStyle=orthogonalEdgeStyle;curved=1;html=1;exitX=0;exitY=0.5;exitDx=0;exitDy=0;exitPerimeter=0;entryX=1;entryY=0.5;entryDx=0;entryDy=0;entryPerimeter=0;strokeColor=#333333;startArrow=oval;startFill=1;strokeWidth=3;" parent="1" source="13" target="207" edge="1">
                    <mxGeometry relative="1" as="geometry">
                        <mxPoint x="212.5" y="1060" as="sourcePoint"/>
                        <mxPoint x="152.5" y="920" as="targetPoint"/>
                    </mxGeometry>
                </mxCell>
                <mxCell id="228" style="edgeStyle=orthogonalEdgeStyle;curved=1;html=1;exitX=0;exitY=0.5;exitDx=0;exitDy=0;exitPerimeter=0;entryX=1;entryY=0.5;entryDx=0;entryDy=0;entryPerimeter=0;strokeColor=#333333;startArrow=oval;startFill=1;strokeWidth=3;" parent="1" source="207" target="215" edge="1">
                    <mxGeometry relative="1" as="geometry">
                        <mxPoint x="62.5" y="920" as="sourcePoint"/>
                        <mxPoint x="2.5" y="940" as="targetPoint"/>
                    </mxGeometry>
                </mxCell>
                <mxCell id="229" style="edgeStyle=orthogonalEdgeStyle;curved=1;html=1;exitX=0;exitY=0.5;exitDx=0;exitDy=0;exitPerimeter=0;entryX=1;entryY=0.5;entryDx=0;entryDy=0;entryPerimeter=0;strokeColor=#333333;startArrow=oval;startFill=1;strokeWidth=3;" parent="1" source="207" target="216" edge="1">
                    <mxGeometry relative="1" as="geometry">
                        <mxPoint x="-27.5" y="1020" as="sourcePoint"/>
                        <mxPoint x="-127.5" y="970" as="targetPoint"/>
                    </mxGeometry>
                </mxCell>
                <mxCell id="230" style="edgeStyle=orthogonalEdgeStyle;curved=1;html=1;exitX=0;exitY=0.5;exitDx=0;exitDy=0;exitPerimeter=0;entryX=1;entryY=0.5;entryDx=0;entryDy=0;entryPerimeter=0;strokeColor=#333333;startArrow=oval;startFill=1;strokeWidth=3;" parent="1" source="207" target="217" edge="1">
                    <mxGeometry relative="1" as="geometry">
                        <mxPoint x="-27.5" y="1020" as="sourcePoint"/>
                        <mxPoint x="-127.5" y="1020" as="targetPoint"/>
                    </mxGeometry>
                </mxCell>
                <mxCell id="231" style="edgeStyle=orthogonalEdgeStyle;curved=1;html=1;exitX=0;exitY=0.5;exitDx=0;exitDy=0;exitPerimeter=0;entryX=1;entryY=0.5;entryDx=0;entryDy=0;entryPerimeter=0;strokeColor=#333333;startArrow=oval;startFill=1;strokeWidth=3;" parent="1" source="13" target="208" edge="1">
                    <mxGeometry relative="1" as="geometry">
                        <mxPoint x="212.5" y="1060" as="sourcePoint"/>
                        <mxPoint x="62.5" y="1020" as="targetPoint"/>
                    </mxGeometry>
                </mxCell>
                <mxCell id="232" style="edgeStyle=orthogonalEdgeStyle;curved=1;html=1;exitX=0;exitY=0.5;exitDx=0;exitDy=0;exitPerimeter=0;entryX=1;entryY=0.5;entryDx=0;entryDy=0;entryPerimeter=0;strokeColor=#333333;startArrow=oval;startFill=1;strokeWidth=3;" parent="1" source="208" target="218" edge="1">
                    <mxGeometry relative="1" as="geometry">
                        <mxPoint x="-27.5" y="1020" as="sourcePoint"/>
                        <mxPoint x="-127.5" y="1060" as="targetPoint"/>
                    </mxGeometry>
                </mxCell>
                <mxCell id="233" style="edgeStyle=orthogonalEdgeStyle;curved=1;html=1;entryX=1;entryY=0.5;entryDx=0;entryDy=0;entryPerimeter=0;strokeColor=#333333;startArrow=oval;startFill=1;strokeWidth=3;exitX=0;exitY=0.5;exitDx=0;exitDy=0;exitPerimeter=0;" parent="1" source="208" target="219" edge="1">
                    <mxGeometry relative="1" as="geometry">
                        <mxPoint x="-7.5" y="1130" as="sourcePoint"/>
                        <mxPoint x="-57.5" y="1110" as="targetPoint"/>
                    </mxGeometry>
                </mxCell>
                <mxCell id="234" style="edgeStyle=orthogonalEdgeStyle;curved=1;html=1;exitX=0;exitY=0.5;exitDx=0;exitDy=0;exitPerimeter=0;entryX=1;entryY=0.5;entryDx=0;entryDy=0;entryPerimeter=0;strokeColor=#333333;startArrow=oval;startFill=1;strokeWidth=3;" parent="1" source="209" target="220" edge="1">
                    <mxGeometry relative="1" as="geometry">
                        <mxPoint x="2.5" y="1140" as="sourcePoint"/>
                        <mxPoint x="-57.5" y="1110" as="targetPoint"/>
                    </mxGeometry>
                </mxCell>
                <mxCell id="235" style="edgeStyle=orthogonalEdgeStyle;curved=1;html=1;exitX=0;exitY=0.5;exitDx=0;exitDy=0;exitPerimeter=0;entryX=1;entryY=0.5;entryDx=0;entryDy=0;entryPerimeter=0;strokeColor=#333333;startArrow=oval;startFill=1;strokeWidth=3;" parent="1" source="209" target="221" edge="1">
                    <mxGeometry relative="1" as="geometry">
                        <mxPoint x="62.5" y="1240" as="sourcePoint"/>
                        <mxPoint x="2.5" y="1210" as="targetPoint"/>
                    </mxGeometry>
                </mxCell>
                <mxCell id="237" style="edgeStyle=orthogonalEdgeStyle;curved=1;html=1;exitX=0;exitY=0.5;exitDx=0;exitDy=0;exitPerimeter=0;entryX=1;entryY=0.5;entryDx=0;entryDy=0;entryPerimeter=0;strokeColor=#333333;startArrow=oval;startFill=1;strokeWidth=3;" parent="1" source="13" target="209" edge="1">
                    <mxGeometry relative="1" as="geometry">
                        <mxPoint x="212.5" y="1060" as="sourcePoint"/>
                        <mxPoint x="92.5" y="1140" as="targetPoint"/>
                    </mxGeometry>
                </mxCell>
                <mxCell id="255" style="edgeStyle=entityRelationEdgeStyle;html=1;entryX=0;entryY=0.5;entryDx=0;entryDy=0;entryPerimeter=0;strokeColor=#333333;strokeWidth=3;fontSize=20;fontColor=#000000;" parent="1" source="238" target="254" edge="1">
                    <mxGeometry relative="1" as="geometry"/>
                </mxCell>
                <mxCell id="256" style="edgeStyle=entityRelationEdgeStyle;html=1;entryX=0;entryY=0.5;entryDx=0;entryDy=0;entryPerimeter=0;strokeColor=#333333;strokeWidth=3;fontSize=20;fontColor=#000000;" parent="1" source="238" target="253" edge="1">
                    <mxGeometry relative="1" as="geometry"/>
                </mxCell>
                <mxCell id="257" style="edgeStyle=orthogonalEdgeStyle;html=1;entryX=0.5;entryY=1;entryDx=0;entryDy=0;entryPerimeter=0;strokeColor=#333333;strokeWidth=3;fontSize=20;fontColor=#000000;curved=1;" parent="1" source="238" target="251" edge="1">
                    <mxGeometry relative="1" as="geometry"/>
                </mxCell>
                <mxCell id="238" value="&lt;font style=&quot;font-size: 10px;&quot;&gt;Tipos de dados&lt;br&gt;&lt;/font&gt;" style="whiteSpace=wrap;html=1;shape=mxgraph.basic.document;fillStyle=solid;fillColor=#a0522d;strokeColor=#6D1F00;fontColor=#ffffff;fontStyle=1" parent="1" vertex="1">
                    <mxGeometry x="840" y="1210" width="90" height="30" as="geometry"/>
                </mxCell>
                <mxCell id="260" style="edgeStyle=orthogonalEdgeStyle;curved=1;html=1;entryX=0;entryY=0.5;entryDx=0;entryDy=0;entryPerimeter=0;strokeColor=#333333;strokeWidth=3;fontSize=20;fontColor=#000000;" parent="1" source="239" target="258" edge="1">
                    <mxGeometry relative="1" as="geometry"/>
                </mxCell>
                <mxCell id="261" style="edgeStyle=orthogonalEdgeStyle;curved=1;html=1;strokeColor=#333333;strokeWidth=3;fontSize=20;fontColor=#000000;entryX=0;entryY=0.5;entryDx=0;entryDy=0;entryPerimeter=0;" parent="1" source="239" target="259" edge="1">
                    <mxGeometry relative="1" as="geometry"/>
                </mxCell>
                <mxCell id="239" value="&lt;font style=&quot;font-size: 10px;&quot;&gt;Estruturas condicionais&lt;br&gt;&lt;/font&gt;" style="whiteSpace=wrap;html=1;shape=mxgraph.basic.document;fillStyle=solid;fillColor=#a0522d;strokeColor=#6D1F00;fontColor=#ffffff;fontStyle=1" parent="1" vertex="1">
                    <mxGeometry x="880" y="1270" width="90" height="30" as="geometry"/>
                </mxCell>
                <mxCell id="264" style="edgeStyle=orthogonalEdgeStyle;curved=1;html=1;entryX=0;entryY=0.5;entryDx=0;entryDy=0;entryPerimeter=0;strokeColor=#333333;strokeWidth=3;fontSize=20;fontColor=#000000;" parent="1" source="240" target="262" edge="1">
                    <mxGeometry relative="1" as="geometry"/>
                </mxCell>
                <mxCell id="265" style="edgeStyle=orthogonalEdgeStyle;curved=1;html=1;entryX=0;entryY=0.5;entryDx=0;entryDy=0;entryPerimeter=0;strokeColor=#333333;strokeWidth=3;fontSize=20;fontColor=#000000;" parent="1" source="240" target="263" edge="1">
                    <mxGeometry relative="1" as="geometry"/>
                </mxCell>
                <mxCell id="240" value="&lt;font style=&quot;font-size: 10px;&quot;&gt;Estruturas de repetiÃ§Ã£o&lt;br&gt;&lt;/font&gt;" style="whiteSpace=wrap;html=1;shape=mxgraph.basic.document;fillStyle=solid;fillColor=#a0522d;strokeColor=#6D1F00;fontColor=#ffffff;fontStyle=1" parent="1" vertex="1">
                    <mxGeometry x="870" y="1340" width="90" height="30" as="geometry"/>
                </mxCell>
                <mxCell id="241" value="&lt;font style=&quot;font-size: 10px;&quot;&gt;Procedures&lt;br&gt;&lt;/font&gt;" style="whiteSpace=wrap;html=1;shape=mxgraph.basic.document;fillStyle=solid;fillColor=#a0522d;strokeColor=#6D1F00;fontColor=#ffffff;fontStyle=1" parent="1" vertex="1">
                    <mxGeometry x="870" y="1400" width="90" height="30" as="geometry"/>
                </mxCell>
                <mxCell id="242" value="&lt;font style=&quot;font-size: 10px;&quot;&gt;FunÃ§Ãµes&lt;br&gt;&lt;/font&gt;" style="whiteSpace=wrap;html=1;shape=mxgraph.basic.document;fillStyle=solid;fillColor=#a0522d;strokeColor=#6D1F00;fontColor=#ffffff;fontStyle=1" parent="1" vertex="1">
                    <mxGeometry x="820" y="1440" width="90" height="30" as="geometry"/>
                </mxCell>
                <mxCell id="243" value="&lt;font style=&quot;font-size: 10px;&quot;&gt;AbstraÃ§Ã£o&lt;br&gt;&lt;/font&gt;" style="whiteSpace=wrap;html=1;shape=mxgraph.basic.document;fillStyle=solid;fillColor=#a0522d;strokeColor=#6D1F00;fontColor=#ffffff;fontStyle=1" parent="1" vertex="1">
                    <mxGeometry x="780" y="1165" width="90" height="30" as="geometry"/>
                </mxCell>
                <mxCell id="244" style="edgeStyle=orthogonalEdgeStyle;curved=1;html=1;strokeColor=#333333;startArrow=oval;startFill=1;strokeWidth=3;entryX=0;entryY=0.5;entryDx=0;entryDy=0;entryPerimeter=0;exitX=1;exitY=0.5;exitDx=0;exitDy=0;exitPerimeter=0;" parent="1" source="14" target="243" edge="1">
                    <mxGeometry relative="1" as="geometry">
                        <mxPoint x="790" y="965.0000000000002" as="sourcePoint"/>
                        <mxPoint x="790" y="1065.0000000000002" as="targetPoint"/>
                        <Array as="points">
                            <mxPoint x="740" y="1275"/>
                            <mxPoint x="740" y="1180"/>
                        </Array>
                    </mxGeometry>
                </mxCell>
                <mxCell id="245" style="edgeStyle=orthogonalEdgeStyle;curved=1;html=1;strokeColor=#333333;startArrow=oval;startFill=1;strokeWidth=3;entryX=0;entryY=0.5;entryDx=0;entryDy=0;entryPerimeter=0;exitX=1;exitY=0.5;exitDx=0;exitDy=0;exitPerimeter=0;" parent="1" source="14" target="238" edge="1">
                    <mxGeometry relative="1" as="geometry">
                        <mxPoint x="725" y="1285" as="sourcePoint"/>
                        <mxPoint x="790" y="1190" as="targetPoint"/>
                        <Array as="points">
                            <mxPoint x="750" y="1275"/>
                            <mxPoint x="750" y="1225"/>
                        </Array>
                    </mxGeometry>
                </mxCell>
                <mxCell id="251" value="&lt;font style=&quot;font-size: 10px;&quot;&gt;Primitivo&lt;br&gt;&lt;/font&gt;" style="whiteSpace=wrap;html=1;shape=mxgraph.basic.document;fillStyle=solid;fillColor=#753C21;strokeColor=#6D1F00;fontColor=#ffffff;fontStyle=1" parent="1" vertex="1">
                    <mxGeometry x="930" y="1130" width="90" height="30" as="geometry"/>
                </mxCell>
                <mxCell id="253" value="&lt;font style=&quot;font-size: 10px;&quot;&gt;HomogÃªneo&lt;br&gt;&lt;/font&gt;" style="whiteSpace=wrap;html=1;shape=mxgraph.basic.document;fillStyle=solid;fillColor=#753C21;strokeColor=#6D1F00;fontColor=#ffffff;fontStyle=1" parent="1" vertex="1">
                    <mxGeometry x="1010" y="1170" width="90" height="30" as="geometry"/>
                </mxCell>
                <mxCell id="254" value="&lt;font style=&quot;font-size: 10px;&quot;&gt;HeterogÃªneo&lt;br&gt;&lt;/font&gt;" style="whiteSpace=wrap;html=1;shape=mxgraph.basic.document;fillStyle=solid;fillColor=#753C21;strokeColor=#6D1F00;fontColor=#ffffff;fontStyle=1" parent="1" vertex="1">
                    <mxGeometry x="1010" y="1210" width="90" height="30" as="geometry"/>
                </mxCell>
                <mxCell id="258" value="&lt;font style=&quot;font-size: 10px;&quot;&gt;IF&lt;br&gt;&lt;/font&gt;" style="whiteSpace=wrap;html=1;shape=mxgraph.basic.document;fillStyle=solid;fillColor=#753C21;strokeColor=#6D1F00;fontColor=#ffffff;fontStyle=1" parent="1" vertex="1">
                    <mxGeometry x="1010" y="1250" width="90" height="30" as="geometry"/>
                </mxCell>
                <mxCell id="259" value="&lt;font style=&quot;font-size: 10px;&quot;&gt;Switch&lt;br&gt;&lt;/font&gt;" style="whiteSpace=wrap;html=1;shape=mxgraph.basic.document;fillStyle=solid;fillColor=#753C21;strokeColor=#6D1F00;fontColor=#ffffff;fontStyle=1" parent="1" vertex="1">
                    <mxGeometry x="1010" y="1290" width="90" height="30" as="geometry"/>
                </mxCell>
                <mxCell id="262" value="&lt;font style=&quot;font-size: 10px;&quot;&gt;For&lt;br&gt;&lt;/font&gt;" style="whiteSpace=wrap;html=1;shape=mxgraph.basic.document;fillStyle=solid;fillColor=#753C21;strokeColor=#6D1F00;fontColor=#ffffff;fontStyle=1" parent="1" vertex="1">
                    <mxGeometry x="1010" y="1330" width="90" height="30" as="geometry"/>
                </mxCell>
                <mxCell id="263" value="&lt;font style=&quot;font-size: 10px;&quot;&gt;While&lt;br&gt;&lt;/font&gt;" style="whiteSpace=wrap;html=1;shape=mxgraph.basic.document;fillStyle=solid;fillColor=#753C21;strokeColor=#6D1F00;fontColor=#ffffff;fontStyle=1" parent="1" vertex="1">
                    <mxGeometry x="1010" y="1370" width="90" height="30" as="geometry"/>
                </mxCell>
                <mxCell id="267" value="" style="group;fillColor=none;fontColor=#ffffff;strokeColor=none;" parent="1" vertex="1" connectable="0">
                    <mxGeometry x="390" y="1450" width="140" height="50" as="geometry"/>
                </mxCell>
                <mxCell id="268" value="" style="verticalLabelPosition=bottom;verticalAlign=top;html=1;shape=mxgraph.basic.rounded_frame;dx=4;whiteSpace=wrap;fillColor=#4D4D4D;strokeWidth=0;fillStyle=solid;gradientColor=none;" parent="267" vertex="1">
                    <mxGeometry width="140" height="50" as="geometry"/>
                </mxCell>
                <mxCell id="269" value="&lt;font color=&quot;#000000&quot; style=&quot;font-size: 16px;&quot;&gt;&lt;b&gt;Ciclo 01: Fim&lt;/b&gt;&lt;/font&gt;" style="text;html=1;align=center;verticalAlign=middle;resizable=0;points=[];autosize=1;strokeColor=none;fillColor=none;" parent="267" vertex="1">
                    <mxGeometry x="10" y="10" width="120" height="30" as="geometry"/>
                </mxCell>
            </root>
        </mxGraphModel>
    </diagram>
</mxfile>